<?xml version="1.0" encoding="utf-8"?>
<!-- Generator: Adobe Illustrator 16.0.3, SVG Export Plug-In . SVG Version: 6.00 Build 0)  -->
<!DOCTYPE svg PUBLIC "-//W3C//DTD SVG 1.1//EN" "http://www.w3.org/Graphics/SVG/1.1/DTD/svg11.dtd">
<svg version="1.1"
	 id="svg2" xmlns:cc="http://creativecommons.org/ns#" xmlns:dc="http://purl.org/dc/elements/1.1/" xmlns:rdf="http://www.w3.org/1999/02/22-rdf-syntax-ns#"
	 xmlns="http://www.w3.org/2000/svg" xmlns:xlink="http://www.w3.org/1999/xlink" x="0px" y="0px" width="396.257px" height="50px"
	 viewBox="0 0 396.257 50" enable-background="new 0 0 396.257 50" xml:space="preserve">
<g>
	<g>
		<path fill="#FF8000" d="M60.25,17.261c-3.584-3.585-4.725-6.599-3.421-8.88C59.354,3.9,71.493,3.9,81.593,6.182l-0.324,1.466
			c-9.45-2.037-20.937-2.118-23.056,1.548c-1.141,2.037,1.059,4.969,3.177,7.087L60.25,17.261"/>
		<g>
			<path fill="#FF8000" d="M82.571,8.137c-0.814,0.814-1.629,1.547-2.362,2.362c-0.732,0.734,0.409,1.792,1.061,1.06
				c0.813-0.814,1.629-1.548,2.361-2.363C84.364,8.544,83.303,7.403,82.571,8.137"/>
			<path fill="#FF8000" d="M87.133,5.856c0.814-0.815,1.547-1.548,2.362-2.363c0.732-0.733-0.406-1.793-1.059-1.059
				c-0.815,0.814-1.548,1.547-2.363,2.362C85.341,5.448,86.401,6.507,87.133,5.856"/>
			<path fill="#FF8000" d="M85.993,9.196c0.814,0.814,1.629,1.548,2.363,2.363c0.733,0.732,1.793-0.408,1.059-1.06
				c-0.815-0.814-1.629-1.548-2.363-2.362C86.401,7.403,85.26,8.544,85.993,9.196"/>
			<path fill="#FF8000" d="M80.208,3.493c0.815,0.814,1.548,1.548,2.362,2.363c0.732,0.733,1.793-0.408,1.06-1.06
				c-0.814-0.814-1.548-1.547-2.361-2.362C80.618,1.7,79.476,2.842,80.208,3.493"/>
		</g>
		<g>
			<path fill="#FF8000" d="M84.039,10.336c0,0.814,0,1.548,0,2.362c0,0.978,1.547,0.978,1.547,0c0-0.814,0-1.548,0-2.362
				C85.585,9.359,84.039,9.359,84.039,10.336"/>
			<path fill="#FF8000" d="M84.039,1.293c0,0.733,0,1.548,0,2.281c0,0.978,1.547,0.978,1.547,0c0-0.732,0-1.547,0-2.281
				C85.585,0.316,84.039,0.316,84.039,1.293"/>
			<path fill="#FF8000" d="M88.275,7.729c0.814,0,1.547,0,2.362,0c0.978,0,0.978-1.548,0-1.548c-0.815,0-1.548,0-2.362,0
				C87.296,6.263,87.296,7.729,88.275,7.729"/>
		</g>
		<path fill="#FF8000" d="M57.725,18.646l4.887-4.807l3.096,3.014c2.851-1.955,6.354-3.014,10.102-3.014
			c9.939-0.081,18.003,7.902,18.003,17.758c0,9.857-8.063,17.842-18.085,17.842c-9.938,0-18.084-7.984-18.084-17.842
			c0-3.665,1.14-7.086,3.095-9.938L57.725,18.646"/>
	</g>
	<g>
		<path fill="#999999" d="M122.131,31.549h-8.129l-1.701,4.886h-3.791l7.928-20.986h3.272l7.942,20.986h-3.805L122.131,31.549z
			 M115.025,28.608h6.083l-3.041-8.706L115.025,28.608z"/>
		<path fill="#999999" d="M146.678,36.435h-3.646l-9.354-14.889v14.889h-3.646V15.449h3.646l9.383,14.947V15.449h3.618V36.435z"/>
		<path fill="#999999" d="M150.987,36.435V15.449h6.198c1.854,0,3.5,0.414,4.937,1.24c1.437,0.827,2.549,1.999,3.337,3.517
			c0.788,1.519,1.182,3.258,1.182,5.218v1.052c0,1.989-0.396,3.738-1.188,5.247c-0.793,1.509-1.922,2.671-3.388,3.487
			c-1.465,0.817-3.145,1.226-5.038,1.226H150.987z M154.634,18.389v15.105h2.378c1.912,0,3.38-0.597,4.403-1.791
			s1.545-2.908,1.563-5.143v-1.165c0-2.273-0.495-4.009-1.484-5.208c-0.99-1.199-2.426-1.798-4.31-1.798H154.634z"/>
		<path fill="#999999" d="M177.984,28.363h-4.064v8.071h-3.647V15.449h7.38c2.422,0,4.291,0.543,5.607,1.63
			c1.316,1.086,1.975,2.659,1.975,4.717c0,1.404-0.339,2.58-1.017,3.527c-0.677,0.946-1.621,1.676-2.832,2.185l4.713,8.739v0.188
			h-3.905L177.984,28.363z M173.919,25.423h3.747c1.229,0,2.191-0.31,2.883-0.93c0.691-0.62,1.038-1.467,1.038-2.544
			c0-1.124-0.32-1.994-0.959-2.609c-0.639-0.615-1.593-0.932-2.861-0.951h-3.848V25.423z"/>
		<path fill="#999999" d="M200.959,27.065h-8.619v6.429h10.075v2.94h-13.723V15.449h13.621v2.94h-9.974v5.794h8.619V27.065z"/>
		<path fill="#999999" d="M216.382,28.651v7.783h-3.647V15.449h8.028c2.345,0,4.207,0.611,5.586,1.833s2.068,2.838,2.068,4.848
			c0,2.059-0.676,3.66-2.025,4.805c-1.35,1.145-3.24,1.717-5.672,1.717H216.382z M216.382,25.711h4.381
			c1.298,0,2.287-0.305,2.97-0.915c0.683-0.61,1.023-1.492,1.023-2.645c0-1.134-0.346-2.04-1.038-2.717
			c-0.691-0.677-1.643-1.025-2.854-1.045h-4.482V25.711z"/>
		<path fill="#999999" d="M240.784,31.549h-8.129l-1.701,4.886h-3.79l7.927-20.986h3.272l7.941,20.986H242.5L240.784,31.549z
			 M233.678,28.608h6.083l-3.042-8.706L233.678,28.608z"/>
		<path fill="#999999" d="M252.114,33.494h11.214v2.94h-15.624v-2.388l10.854-15.658h-10.781v-2.94h15.206v2.306L252.114,33.494z"/>
		<path fill="#999999" d="M277.453,33.494h9.527v2.94h-13.175V15.449h3.647V33.494z"/>
		<path fill="#999999" d="M302.042,27.065h-8.619v6.429h10.075v2.94h-13.723V15.449h13.621v2.94h-9.974v5.794h8.619V27.065z"/>
		<path fill="#999999" d="M318.214,31.549h-8.129l-1.701,4.886h-3.79l7.927-20.986h3.272l7.941,20.986h-3.805L318.214,31.549z
			 M311.109,28.608h6.083l-3.042-8.706L311.109,28.608z"/>
		<path fill="#999999" d="M329.76,33.494h9.527v2.94h-13.175V15.449h3.647V33.494z"/>
	</g>
</g>
</svg>
