<?xml version="1.0" encoding="utf-8"?>
<!-- Generator: Adobe Illustrator 16.0.3, SVG Export Plug-In . SVG Version: 6.00 Build 0)  -->
<!DOCTYPE svg PUBLIC "-//W3C//DTD SVG 1.1//EN" "http://www.w3.org/Graphics/SVG/1.1/DTD/svg11.dtd">
<svg version="1.1"
	 id="svg2" xmlns:cc="http://creativecommons.org/ns#" xmlns:dc="http://purl.org/dc/elements/1.1/" xmlns:rdf="http://www.w3.org/1999/02/22-rdf-syntax-ns#"
	 xmlns="http://www.w3.org/2000/svg" xmlns:xlink="http://www.w3.org/1999/xlink" x="0px" y="0px" width="396.257px" height="50px"
	 viewBox="0 0 396.257 50" enable-background="new 0 0 396.257 50" xml:space="preserve">
<g>
	<path fill="#666666" d="M141.083,25.861h-3.387v9.756c0,0.188-0.153,0.34-0.339,0.34h-1.682c-0.188,0-0.338-0.152-0.338-0.34
		v-9.756h-3.391c-0.188,0-0.341-0.117-0.341-0.305v-1.342c0-0.188,0.152-0.32,0.341-0.32h9.136c0.188,0,0.342,0.133,0.342,0.32
		v1.342C141.425,25.744,141.272,25.861,141.083,25.861 M153.676,35.617V24.215c0-0.188-0.154-0.32-0.341-0.32h-1.678
		c-0.19,0-0.343,0.133-0.343,0.32v4.412h-5.379v-4.412c0-0.188-0.151-0.32-0.338-0.32h-1.681c-0.188,0-0.34,0.133-0.34,0.32v11.402
		c0,0.188,0.152,0.34,0.34,0.34h1.681c0.187,0,0.338-0.152,0.338-0.34v-4.92h5.379v4.92c0,0.188,0.152,0.34,0.343,0.34h1.678
		C153.522,35.957,153.676,35.805,153.676,35.617 M167.151,29.057v1.736c0,3.736-2.596,5.299-5.4,5.299
		c-2.801,0-5.394-1.563-5.394-5.299v-1.736c0-3.736,2.593-5.299,5.394-5.299C164.555,23.758,167.151,25.32,167.151,29.057
		 M164.77,29.057c0-2.24-1.354-3.242-3.02-3.242c-1.662,0-3.019,1.002-3.019,3.242v1.736c0,2.244,1.356,3.24,3.019,3.24
		c1.666,0,3.02-0.996,3.02-3.24V29.057z M182.071,35.701V24.57c0-0.373-0.308-0.676-0.679-0.676h-1.394
		c-0.271,0-0.51,0.166-0.627,0.406l-3.259,6.635c-0.086,0.154-0.121,0.236-0.188,0.236c-0.068,0-0.103-0.082-0.189-0.236
		l-3.257-6.635c-0.118-0.24-0.356-0.406-0.626-0.406h-1.395c-0.376,0-0.681,0.303-0.681,0.676v11.131
		c0,0.17,0.138,0.256,0.292,0.256h1.714c0.153,0,0.274-0.172,0.274-0.34v-7.342c0-0.119,0.015-0.17,0.05-0.17
		c0.015,0,0.047,0.051,0.086,0.102l2.758,6.07c0.1,0.188,0.32,0.291,0.541,0.291h0.884c0.222,0,0.439-0.104,0.54-0.291l2.741-6.07
		c0.039-0.051,0.071-0.102,0.085-0.102c0.034,0,0.052,0.051,0.052,0.17v7.342c0,0.168,0.118,0.34,0.271,0.34h1.717
		C181.935,35.957,182.071,35.871,182.071,35.701 M219.759,35.277V24.215c0-0.188-0.138-0.32-0.323-0.32h-1.46
		c-0.188,0-0.324,0.133-0.324,0.32v8.379c0,0.1-0.05,0.152-0.083,0.152c-0.055,0-0.104-0.053-0.137-0.135l-4.789-8.176
		c-0.206-0.443-0.393-0.541-0.748-0.541h-1.837c-0.371,0-0.673,0.303-0.673,0.676v11.047c0,0.188,0.147,0.34,0.337,0.34h1.44
		c0.188,0,0.326-0.152,0.326-0.34v-7.986c0-0.1,0.036-0.139,0.086-0.139c0.048,0,0.099,0.039,0.148,0.139l4.607,7.717
		c0.264,0.609,0.625,0.609,1.033,0.609h1.718C219.455,35.957,219.759,35.65,219.759,35.277 M193.824,32.551
		c0-1.629-0.928-2.473-2.362-3.051c-1.129-0.455-2.12-0.84-2.874-1.137c-0.751-0.297-1.391-0.813-1.391-1.371
		c0-0.764,0.947-1.205,2.199-1.205c1.479,0,2.641,0.205,3.763,0.309h0.036c0.169,0,0.286-0.137,0.286-0.305v-1.262
		c0-0.168-0.134-0.289-0.304-0.32c-0.576-0.139-2.057-0.447-3.677-0.447c-3.157,0-4.664,1.357-4.664,3.23
		c0,1.188,0.523,2.357,2.005,2.969c1.48,0.611,4.519,1.316,4.519,2.59c0,0.984-0.458,1.525-1.973,1.525
		c-1.569,0-3.158-0.221-3.838-0.307h-0.036c-0.167,0-0.319,0.139-0.319,0.324v1.221c0,0.188,0.152,0.305,0.319,0.34
		c0.818,0.188,2.343,0.445,3.84,0.445C192.753,36.1,193.824,34.264,193.824,32.551 M206.75,29.057v1.736
		c0,3.736-2.592,5.299-5.393,5.299c-2.8,0-5.395-1.563-5.395-5.299v-1.736c0-3.736,2.595-5.299,5.395-5.299
		C204.158,23.758,206.75,25.32,206.75,29.057 M204.376,29.057c0-2.24-1.354-3.242-3.02-3.242c-1.663,0-3.02,1.002-3.02,3.242v1.736
		c0,2.244,1.356,3.24,3.02,3.24c1.666,0,3.02-0.996,3.02-3.24V29.057z M237.573,35.756c0,0.115-0.067,0.201-0.202,0.201h-2.074
		c-0.186,0-0.255-0.172-0.339-0.34l-2.446-4.117h-0.378c-0.44,0-1.814-0.049-2.204-0.07v4.188c0,0.188-0.136,0.34-0.323,0.34h-1.699
		c-0.187,0-0.337-0.152-0.337-0.34V24.484c0-0.338,0.201-0.457,0.542-0.508c0.884-0.135,2.784-0.219,4.021-0.219
		c2.617,0,5.03,0.934,5.03,3.84v0.154c0,1.797-0.901,2.781-2.289,3.322l2.663,4.543C237.573,35.67,237.573,35.717,237.573,35.756
		 M234.822,27.598c0-1.275-0.987-1.818-2.688-1.818c-0.354,0-1.9,0.035-2.204,0.068v3.682c0.269,0.018,1.913,0.053,2.204,0.053
		c1.75,0,2.688-0.338,2.688-1.83V27.598z M242.1,30.697h5.435c0.188,0,0.341-0.152,0.341-0.336v-1.227
		c0-0.186-0.153-0.338-0.341-0.338H242.1v-1.559c0-1.42,0.056-1.459,1.34-1.459h4.3c0.184,0,0.339-0.156,0.339-0.342v-1.086
		c0-0.24-0.084-0.324-0.339-0.359c-0.544-0.082-1.65-0.234-3.669-0.234c-2.822,0-4.315-0.02-4.315,3.48v5.373
		c0,3.5,1.493,3.48,4.315,3.48c2.019,0,3.125-0.152,3.669-0.236c0.255-0.035,0.339-0.117,0.339-0.359V34.41
		c0-0.186-0.155-0.336-0.339-0.336h-4.3c-1.284,0-1.34-0.041-1.34-1.463V30.697z M260.794,31.285v-7.07
		c0-0.188-0.151-0.32-0.343-0.32h-1.682c-0.185,0-0.335,0.133-0.335,0.32v7.07c0,1.936-0.896,2.855-2.732,2.855
		c-1.83,0-2.726-0.92-2.726-2.855v-7.07c0-0.188-0.151-0.32-0.34-0.32h-1.679c-0.186,0-0.342,0.133-0.342,0.32v7.07
		c0,3.617,2.354,4.807,5.086,4.807C258.441,36.092,260.794,34.902,260.794,31.285 M272.297,25.557v-1.342
		c0-0.188-0.154-0.32-0.339-0.32h-9.142c-0.183,0-0.337,0.133-0.337,0.32v1.342c0,0.188,0.154,0.305,0.337,0.305h3.391v9.756
		c0,0.188,0.154,0.34,0.341,0.34h1.681c0.187,0,0.343-0.152,0.343-0.34v-9.756h3.387C272.143,25.861,272.297,25.744,272.297,25.557
		 M295.222,35.756c0,0.115-0.068,0.201-0.202,0.201h-2.074c-0.187,0-0.253-0.172-0.337-0.34l-2.45-4.117h-0.376
		c-0.441,0-1.813-0.049-2.205-0.07v4.188c0,0.188-0.136,0.34-0.322,0.34h-1.695c-0.187,0-0.34-0.152-0.34-0.34V24.484
		c0-0.338,0.201-0.457,0.542-0.508c0.883-0.135,2.784-0.219,4.021-0.219c2.619,0,5.03,0.934,5.03,3.84v0.154
		c0,1.797-0.903,2.781-2.293,3.322l2.669,4.543C295.222,35.67,295.222,35.717,295.222,35.756 M292.472,27.598
		c0-1.275-0.989-1.818-2.689-1.818c-0.357,0-1.9,0.035-2.205,0.068v3.682c0.272,0.018,1.919,0.053,2.205,0.053
		c1.752,0,2.689-0.338,2.689-1.83V27.598z M305.967,32.551c0-1.629-0.93-2.473-2.361-3.051c-1.125-0.455-2.116-0.84-2.87-1.137
		c-0.755-0.301-1.392-0.813-1.392-1.371c0-0.764,0.941-1.205,2.2-1.205c1.477,0,2.638,0.205,3.76,0.309h0.034
		c0.173,0,0.288-0.137,0.288-0.305v-1.262c0-0.168-0.135-0.289-0.305-0.32c-0.579-0.139-2.06-0.447-3.679-0.447
		c-3.157,0-4.662,1.357-4.662,3.23c0,1.188,0.524,2.357,2.001,2.969c1.483,0.611,4.525,1.316,4.525,2.59
		c0,0.984-0.463,1.525-1.974,1.525c-1.568,0-3.159-0.221-3.836-0.307h-0.036c-0.169,0-0.322,0.139-0.322,0.324v1.221
		c0,0.188,0.153,0.305,0.322,0.34c0.816,0.188,2.336,0.445,3.839,0.445C304.896,36.1,305.967,34.264,305.967,32.551 M276.386,30.697
		h5.436c0.189,0,0.337-0.152,0.337-0.336v-1.227c0-0.186-0.147-0.338-0.337-0.338h-5.436v-1.559c0-1.42,0.055-1.459,1.339-1.459
		h4.304c0.182,0,0.335-0.156,0.335-0.342v-1.086c0-0.24-0.084-0.324-0.335-0.359c-0.548-0.082-1.651-0.234-3.671-0.234
		c-2.822,0-4.315-0.02-4.315,3.48v5.373c0,3.5,1.493,3.48,4.315,3.48c2.02,0,3.123-0.152,3.671-0.236
		c0.251-0.035,0.335-0.117,0.335-0.359V34.41c0-0.186-0.153-0.336-0.335-0.336h-4.304c-1.284,0-1.339-0.041-1.339-1.463V30.697z
		 M307.749,26.225c0,1.332,0.985,2.461,2.484,2.461c1.501,0,2.498-1.129,2.498-2.461c0-1.346-0.997-2.451-2.498-2.451
		C308.734,23.773,307.749,24.879,307.749,26.225 M308.111,26.225c0-1.189,0.836-2.137,2.122-2.137c1.298,0,2.134,0.947,2.134,2.137
		c0,1.186-0.836,2.146-2.134,2.146C308.947,28.371,308.111,27.41,308.111,26.225 M311.36,27.32l-0.537-0.918
		c0.28-0.109,0.464-0.307,0.464-0.674v-0.029c0-0.586-0.488-0.773-1.016-0.773c-0.251,0-0.635,0.016-0.814,0.045
		c-0.067,0.01-0.108,0.033-0.108,0.1v2.25c0,0.037,0.031,0.068,0.069,0.068h0.342c0.038,0,0.063-0.031,0.063-0.068v-0.844
		c0.08,0.004,0.357,0.012,0.448,0.012h0.074l0.495,0.832c0.016,0.033,0.03,0.068,0.069,0.068h0.418c0.025,0,0.04-0.018,0.04-0.041
		C311.368,27.34,311.368,27.332,311.36,27.32 M310.812,25.729c0,0.303-0.19,0.373-0.541,0.373c-0.06,0-0.392-0.008-0.448-0.01
		v-0.744c0.063-0.008,0.376-0.016,0.448-0.016c0.342,0,0.541,0.109,0.541,0.367V25.729z"/>
	<path fill="#FF8001" d="M135.216,13.092c-1.148,0-1.604-0.59-1.604-1.604V6.723h-0.999V6.031h0.999V4.176h0.84v1.855h1.781v0.691
		h-1.781v4.721c0,0.633,0.205,0.973,0.956,0.973c0.294,0,0.589-0.045,0.809-0.133l0.044,0.646
		C136.009,13.033,135.569,13.092,135.216,13.092 M143.643,12.973V8.236c0-1.455-0.69-2.354-2.248-2.354
		c-1.178,0-2.018,0.662-2.442,1.721V3.176h-0.825v9.797h0.825V9.297c0-1.693,1.041-2.707,2.235-2.707
		c1.117,0,1.633,0.631,1.633,1.764v4.619H143.643z M151.068,9.752h-4.928c0.061,1.662,0.722,2.736,2.562,2.736
		c0.794,0,1.559-0.189,2.146-0.441l0.134,0.574c-0.561,0.279-1.44,0.5-2.366,0.5c-2.358,0-3.284-1.516-3.284-3.617
		c0-2.209,1.03-3.621,3.091-3.621c1.955,0,2.646,1.428,2.646,3.207V9.752z M150.29,8.943c0-1.383-0.47-2.473-1.881-2.473
		c-1.415,0-2.164,0.898-2.25,2.664h4.131V8.943z M169.402,12.973V8.236c0-1.455-0.69-2.354-2.251-2.354
		c-1.207,0-2.045,0.676-2.472,1.736V6.031h-0.797v6.941h0.824V9.297c0-1.693,1.045-2.707,2.237-2.707
		c1.12,0,1.634,0.631,1.634,1.764v4.619H169.402z M175.964,11.121c0-1.221-0.91-1.617-2.34-2.045
		c-1.219-0.369-1.808-0.561-1.808-1.385c0-0.852,0.633-1.176,1.677-1.176c0.735,0,1.457,0.176,2.029,0.426l0.164-0.633
		c-0.562-0.248-1.313-0.426-2.193-0.426c-1.577,0-2.486,0.602-2.486,1.898c0,1.117,0.748,1.574,2.396,2.029
		c1.222,0.324,1.751,0.631,1.751,1.396c0,0.813-0.572,1.281-1.661,1.281c-0.78,0-1.558-0.205-2.265-0.516l-0.206,0.619
		c0.794,0.338,1.69,0.529,2.471,0.529C175.068,13.121,175.964,12.385,175.964,11.121 M182.125,6.031h-0.881l-1.841,5.912
		l-1.675-5.912h-0.81l2.074,6.941h0.794l1.915-6.191l1.882,6.191h0.794l2.074-6.941h-0.812l-1.673,5.912L182.125,6.031z
		 M192.994,9.752h-4.927c0.058,1.662,0.721,2.736,2.561,2.736c0.794,0,1.56-0.189,2.147-0.441l0.133,0.574
		c-0.561,0.279-1.444,0.5-2.37,0.5c-2.354,0-3.28-1.516-3.28-3.617c0-2.209,1.03-3.621,3.09-3.621c1.956,0,2.646,1.428,2.646,3.207
		V9.752z M192.214,8.943c0-1.383-0.469-2.473-1.882-2.473s-2.162,0.898-2.252,2.664h4.134V8.943z M198.301,6.736V6.016
		c-0.161-0.045-0.396-0.074-0.635-0.074c-1.203,0-1.865,0.795-2.129,1.75v-1.66h-0.825v6.941h0.84V9.311
		c0-1.354,0.722-2.619,2.16-2.619C197.919,6.691,198.081,6.707,198.301,6.736 M207.494,6.279c-0.457-0.248-1.206-0.396-1.929-0.396
		c-2.076,0-3.223,1.311-3.223,3.621c0,2.293,1.146,3.617,3.223,3.617c0.723,0,1.472-0.16,1.929-0.398l-0.148-0.629
		c-0.454,0.189-1.028,0.336-1.692,0.336c-1.794,0-2.486-1.207-2.486-2.926c0-1.738,0.692-2.945,2.486-2.945
		c0.664,0,1.238,0.148,1.692,0.355L207.494,6.279z M214.549,9.504c0,2.043-1.016,3.617-3.048,3.617
		c-2.028,0-3.044-1.574-3.044-3.617c0-2.061,1.001-3.621,3.044-3.621C213.546,5.883,214.549,7.443,214.549,9.504 M213.725,9.504
		c0-1.781-0.721-2.959-2.224-2.959c-1.497,0-2.22,1.178-2.22,2.959c0,1.777,0.723,2.939,2.22,2.939
		C213.004,12.443,213.725,11.281,213.725,9.504 M221.52,12.973V9.164c0-1.602,0.93-2.574,2.031-2.574
		c1.091,0,1.635,0.617,1.635,1.764v4.619h0.823V8.236c0-1.428-0.689-2.354-2.236-2.354c-1.191,0-2,0.721-2.34,1.721
		c-0.177-1.059-0.838-1.721-2.134-1.721c-1.131,0-1.894,0.676-2.279,1.736V6.031h-0.794v6.941h0.825V9.297
		c0-1.678,0.881-2.707,2.028-2.707c1.075,0,1.618,0.617,1.618,1.764v4.619H221.52z M234.113,9.504c0,2-0.828,3.617-2.784,3.617
		c-1.148,0-1.984-0.633-2.442-1.648v4.119h-0.821V6.031h0.793v1.498c0.456-1.029,1.322-1.646,2.471-1.646
		C233.285,5.883,234.113,7.486,234.113,9.504 M233.299,9.504c0-1.695-0.602-2.959-2.117-2.959c-1.547,0-2.296,1.426-2.296,2.959
		c0,1.514,0.749,2.939,2.296,2.939C232.698,12.443,233.299,11.18,233.299,9.504 M161.696,6.031v6.939h-0.827v-1.498
		c-0.454,1.016-1.294,1.648-2.442,1.648c-1.955,0-2.778-1.617-2.778-3.617c0-2.018,0.823-3.621,2.778-3.621
		c1.148,0,2.018,0.617,2.474,1.646V6.031H161.696z M160.869,9.504c0-1.533-0.749-2.959-2.294-2.959
		c-1.516,0-2.119,1.264-2.119,2.959c0,1.676,0.604,2.939,2.119,2.939C160.12,12.443,160.869,11.018,160.869,9.504 M241.463,6.031
		v6.939h-0.824v-1.498c-0.453,1.016-1.294,1.648-2.439,1.648c-1.956,0-2.78-1.617-2.78-3.617c0-2.018,0.824-3.621,2.78-3.621
		c1.146,0,2.016,0.617,2.471,1.646V6.031H241.463z M240.639,9.504c0-1.533-0.748-2.959-2.293-2.959
		c-1.514,0-2.117,1.264-2.117,2.959c0,1.676,0.604,2.939,2.117,2.939C239.891,12.443,240.639,11.018,240.639,9.504 M249.05,12.973
		V8.236c0-1.455-0.689-2.354-2.25-2.354c-1.208,0-2.045,0.676-2.473,1.736V6.031h-0.794v6.941h0.827V9.297
		c0-1.693,1.042-2.707,2.234-2.707c1.117,0,1.634,0.631,1.634,1.764v4.619H249.05z M252.956,12.094l-2.061-6.063h-0.851l2.499,6.957
		l-0.898,2.604h0.796l3.396-9.561h-0.866L252.956,12.094z M259.579,6.504h-0.814v2.344c0,0.045-0.037,0.082-0.085,0.082h-0.401
		c-0.042,0-0.079-0.037-0.079-0.082V6.504h-0.816c-0.046,0-0.081-0.029-0.081-0.074V6.107c0-0.045,0.035-0.076,0.081-0.076h2.196
		c0.046,0,0.081,0.031,0.081,0.076V6.43C259.66,6.475,259.625,6.504,259.579,6.504 M262.962,8.93h-0.412
		c-0.037,0-0.063-0.043-0.063-0.082V7.084c0-0.029-0.016-0.041-0.016-0.041s-0.009,0.012-0.017,0.023l-0.661,1.459
		c-0.025,0.043-0.075,0.072-0.131,0.072h-0.211c-0.053,0-0.105-0.029-0.13-0.072l-0.663-1.459c-0.008-0.012-0.029-0.023-0.029-0.023
		s-0.006,0.012-0.006,0.041v1.764c0,0.039-0.027,0.082-0.063,0.082h-0.412c-0.039,0-0.069-0.021-0.069-0.061V6.191
		c0-0.09,0.073-0.16,0.161-0.16h0.335c0.066,0,0.125,0.041,0.151,0.096l0.782,1.596c0.021,0.035,0.029,0.057,0.048,0.057
		c0.016,0,0.025-0.021,0.045-0.057l0.781-1.596c0.027-0.055,0.088-0.096,0.151-0.096h0.336c0.088,0,0.163,0.07,0.163,0.16v2.678
		C263.034,8.908,263,8.93,262.962,8.93 M120.468,29.928c0-1.074-0.876-1.951-1.957-1.951c-1.077,0-1.95,0.877-1.95,1.951
		c0,1.084,0.873,1.963,1.95,1.963C119.592,31.891,120.468,31.012,120.468,29.928 M119.349,24.174
		c-0.301-0.889-1.258-1.371-2.136-1.078c-0.887,0.297-1.366,1.248-1.077,2.137c0.3,0.883,1.252,1.365,2.135,1.076
		C119.158,26.014,119.638,25.049,119.349,24.174 M116.772,19.74c-0.449-0.646-1.345-0.816-1.998-0.359
		c-0.65,0.447-0.813,1.346-0.368,1.992c0.454,0.66,1.346,0.83,2.003,0.369C117.063,21.287,117.221,20.402,116.772,19.74
		 M113.187,16.361c-0.525-0.441-1.305-0.363-1.741,0.166c-0.436,0.523-0.364,1.309,0.165,1.742c0.528,0.438,1.313,0.361,1.74-0.168
		C113.795,17.572,113.713,16.795,113.187,16.361 M109.242,14.318c-0.504-0.225-1.097-0.008-1.334,0.488
		c-0.229,0.498-0.012,1.102,0.488,1.332c0.506,0.242,1.105,0.02,1.337-0.486C109.965,15.146,109.748,14.553,109.242,14.318
		 M105.479,13.303c-0.467-0.1-0.923,0.197-1.022,0.672c-0.096,0.465,0.203,0.922,0.667,1.018c0.464,0.104,0.93-0.197,1.026-0.67
		C106.246,13.854,105.947,13.398,105.479,13.303 M101.994,13.033c-0.412-0.002-0.744,0.33-0.744,0.742
		c0,0.408,0.332,0.744,0.744,0.744s0.742-0.336,0.742-0.744C102.736,13.363,102.406,13.031,101.994,13.033 M87.428,29.928
		c0-1.074-0.871-1.951-1.954-1.951c-1.072,0-1.948,0.877-1.948,1.951c0,1.084,0.876,1.963,1.948,1.963
		C86.557,31.891,87.428,31.012,87.428,29.928 M87.86,34.625c-0.299-0.887-1.252-1.369-2.133-1.076
		c-0.896,0.293-1.369,1.256-1.08,2.135c0.293,0.893,1.248,1.371,2.136,1.078C87.669,36.467,88.153,35.512,87.86,34.625
		 M89.584,38.482c-0.45-0.646-1.345-0.813-1.999-0.359c-0.652,0.445-0.814,1.34-0.374,1.998c0.454,0.645,1.352,0.807,2.007,0.357
		C89.869,40.033,90.038,39.135,89.584,38.482 M92.379,41.594c-0.529-0.441-1.309-0.357-1.744,0.164
		c-0.44,0.529-0.362,1.303,0.165,1.74c0.531,0.447,1.313,0.369,1.748-0.164C92.984,42.807,92.905,42.021,92.379,41.594
		 M95.59,43.719c-0.5-0.242-1.095-0.021-1.326,0.482c-0.231,0.506-0.018,1.102,0.486,1.336c0.497,0.232,1.097,0.02,1.335-0.494
		C96.318,44.551,96.094,43.947,95.59,43.719 M98.873,44.865c-0.464-0.096-0.93,0.207-1.022,0.672
		c-0.1,0.465,0.201,0.928,0.672,1.021c0.46,0.102,0.926-0.197,1.021-0.668C99.641,45.422,99.338,44.965,98.873,44.865 M102,45.334
		c-0.414,0-0.743,0.338-0.743,0.744c0,0.414,0.329,0.74,0.743,0.746c0.409-0.006,0.742-0.332,0.742-0.746
		C102.743,45.672,102.41,45.334,102,45.334 M85.723,26.311c0.885,0.297,1.84-0.189,2.135-1.076c0.293-0.881-0.187-1.838-1.077-2.133
		c-0.886-0.293-1.839,0.184-2.134,1.072C84.358,25.053,84.831,26.018,85.723,26.311 M87.583,21.742
		c0.652,0.457,1.545,0.285,2.005-0.367c0.441-0.652,0.28-1.543-0.374-1.998c-0.651-0.449-1.547-0.285-1.997,0.363
		C86.764,20.393,86.933,21.293,87.583,21.742 M90.635,18.1c0.436,0.529,1.215,0.607,1.748,0.162c0.525-0.43,0.604-1.215,0.167-1.736
		c-0.437-0.533-1.214-0.609-1.747-0.166C90.275,16.789,90.197,17.57,90.635,18.1 M94.258,15.658c0.236,0.5,0.838,0.723,1.338,0.48
		c0.506-0.227,0.722-0.824,0.489-1.326c-0.238-0.502-0.838-0.719-1.335-0.494C94.247,14.559,94.033,15.148,94.258,15.658
		 M97.846,14.316c0.099,0.479,0.561,0.775,1.026,0.676c0.47-0.1,0.767-0.553,0.671-1.023c-0.1-0.467-0.566-0.766-1.021-0.668
		C98.046,13.398,97.75,13.852,97.846,14.316 M117.213,36.768c0.878,0.295,1.837-0.191,2.136-1.08
		c0.289-0.879-0.188-1.838-1.078-2.137c-0.891-0.289-1.838,0.191-2.131,1.076C115.847,35.516,116.325,36.469,117.213,36.768
		 M114.778,40.477c0.646,0.451,1.551,0.287,1.997-0.357c0.452-0.662,0.283-1.551-0.362-2c-0.665-0.453-1.551-0.291-2.005,0.363
		C113.97,39.129,114.124,40.037,114.778,40.477 M111.448,43.334c0.435,0.531,1.218,0.609,1.743,0.164
		c0.526-0.438,0.604-1.215,0.16-1.744c-0.428-0.525-1.205-0.605-1.734-0.16C111.093,42.021,111.012,42.803,111.448,43.334
		 M107.908,45.051c0.23,0.51,0.837,0.727,1.338,0.494c0.504-0.236,0.72-0.834,0.487-1.34c-0.24-0.506-0.829-0.727-1.337-0.486
		C107.896,43.955,107.678,44.551,107.908,45.051 M104.453,45.885c0.094,0.473,0.56,0.775,1.023,0.672
		c0.472-0.096,0.77-0.561,0.672-1.021c-0.095-0.469-0.563-0.766-1.024-0.67C104.66,44.963,104.355,45.42,104.453,45.885
		 M114.384,23.184c-0.395-0.719-1.3-0.992-2.025-0.602c-0.728,0.4-0.993,1.307-0.601,2.025c0.396,0.727,1.299,0.998,2.03,0.611
		C114.512,24.818,114.78,23.91,114.384,23.184 M111.587,19.67c-0.562-0.527-1.432-0.498-1.949,0.059
		c-0.514,0.561-0.492,1.438,0.067,1.959c0.552,0.516,1.434,0.488,1.951-0.066C112.172,21.061,112.15,20.184,111.587,19.67
		 M108.115,17.561c-0.574-0.289-1.279-0.055-1.57,0.545c-0.284,0.568-0.05,1.281,0.533,1.568c0.582,0.281,1.292,0.055,1.573-0.539
		C108.937,18.547,108.701,17.854,108.115,17.561 M104.561,16.699c-0.552-0.109-1.066,0.244-1.171,0.783
		c-0.103,0.537,0.251,1.064,0.786,1.162c0.547,0.109,1.063-0.25,1.169-0.779C105.448,17.314,105.089,16.803,104.561,16.699
		 M101.15,16.816c-0.416,0.031-0.734,0.393-0.711,0.813c0.028,0.42,0.393,0.744,0.816,0.719c0.423-0.023,0.74-0.396,0.713-0.82
		C101.936,17.104,101.574,16.791,101.15,16.816 M98.257,17.508c-0.345,0.1-0.537,0.471-0.438,0.822
		c0.108,0.348,0.473,0.549,0.819,0.443c0.354-0.105,0.546-0.48,0.439-0.826C98.977,17.598,98.614,17.402,98.257,17.508 M95.825,18.6
		c-0.278,0.146-0.38,0.498-0.23,0.771c0.149,0.271,0.495,0.385,0.774,0.227c0.271-0.15,0.378-0.5,0.229-0.771
		C96.45,18.547,96.092,18.449,95.825,18.6 M92.226,35.244c-0.398-0.723-1.302-0.99-2.027-0.596
		c-0.724,0.396-0.984,1.303-0.587,2.025c0.391,0.717,1.292,0.996,2.021,0.604C92.355,36.879,92.622,35.971,92.226,35.244
		 M94.298,38.17c-0.56-0.52-1.432-0.49-1.946,0.061c-0.522,0.561-0.491,1.438,0.064,1.951c0.556,0.521,1.435,0.496,1.951-0.055
		C94.888,39.557,94.863,38.688,94.298,38.17 M96.831,40.127c-0.581-0.285-1.284-0.051-1.581,0.527
		c-0.284,0.576-0.056,1.271,0.516,1.58c0.58,0.287,1.284,0.053,1.59-0.533C97.643,41.131,97.404,40.42,96.831,40.127 M99.816,41.217
		c-0.541-0.104-1.059,0.244-1.165,0.779c-0.11,0.549,0.245,1.063,0.779,1.174c0.551,0.105,1.066-0.246,1.171-0.791
		C100.706,41.84,100.35,41.316,99.816,41.217 M102.736,41.512c-0.429,0.021-0.74,0.393-0.713,0.814
		c0.033,0.424,0.392,0.744,0.813,0.713c0.42-0.025,0.74-0.391,0.713-0.816C103.533,41.803,103.157,41.486,102.736,41.512
		 M105.354,41.088c-0.35,0.111-0.542,0.477-0.443,0.82c0.11,0.354,0.476,0.549,0.827,0.449c0.343-0.109,0.552-0.477,0.441-0.832
		C106.075,41.184,105.707,40.99,105.354,41.088 M107.622,40.26c-0.274,0.145-0.372,0.498-0.224,0.771s0.491,0.371,0.77,0.225
		c0.273-0.145,0.384-0.492,0.229-0.766C108.249,40.211,107.902,40.105,107.622,40.26 M89.739,33.332
		c0.647-0.113,1.068-0.727,0.949-1.361c-0.116-0.639-0.722-1.076-1.365-0.947c-0.644,0.117-1.066,0.723-0.951,1.365
		C88.489,33.02,89.095,33.455,89.739,33.332 M89.359,29.568c0.524,0.064,1.001-0.332,1.067-0.855
		c0.042-0.527-0.341-0.996-0.874-1.051c-0.52-0.057-0.99,0.328-1.049,0.85C88.445,29.037,88.83,29.518,89.359,29.568 M90.072,26.115
		c0.462,0.18,0.997-0.035,1.187-0.512c0.187-0.463-0.04-0.994-0.506-1.176c-0.466-0.188-0.989,0.031-1.187,0.504
		C89.383,25.391,89.608,25.922,90.072,26.115 M91.595,23.182c0.344,0.25,0.823,0.184,1.074-0.168
		c0.256-0.334,0.185-0.813-0.156-1.059c-0.343-0.258-0.823-0.188-1.07,0.154C91.186,22.451,91.264,22.926,91.595,23.182
		 M93.508,20.98c0.251,0.275,0.662,0.313,0.937,0.08c0.279-0.248,0.313-0.662,0.084-0.938c-0.24-0.271-0.665-0.309-0.938-0.072
		C93.316,20.295,93.281,20.707,93.508,20.98 M114.672,28.84c0.639-0.107,1.067-0.725,0.943-1.365
		c-0.106-0.633-0.724-1.063-1.365-0.945c-0.639,0.123-1.066,0.727-0.945,1.369C113.429,28.535,114.028,28.965,114.672,28.84
		 M114.432,32.199c0.521,0.061,0.999-0.328,1.057-0.848c0.058-0.535-0.33-1.002-0.852-1.057c-0.535-0.053-1.006,0.328-1.062,0.848
		C113.522,31.666,113.908,32.15,114.432,32.199 M113.241,35.43c0.465,0.193,0.998-0.037,1.177-0.506
		c0.188-0.465-0.029-0.99-0.503-1.176c-0.462-0.189-0.991,0.029-1.18,0.504C112.555,34.715,112.782,35.244,113.241,35.43
		 M111.483,37.914c0.337,0.25,0.823,0.182,1.07-0.164c0.255-0.34,0.18-0.816-0.15-1.07c-0.352-0.252-0.834-0.186-1.078,0.158
		C111.072,37.18,111.145,37.658,111.483,37.914 M109.461,39.729c0.242,0.283,0.664,0.316,0.941,0.078
		c0.281-0.23,0.316-0.656,0.074-0.932c-0.233-0.271-0.658-0.301-0.931-0.074C109.266,39.041,109.232,39.459,109.461,39.729
		 M109.315,22.652c-0.557-0.549-1.438-0.561-1.984,0.008c-0.541,0.518-0.541,1.406,0,1.947c0.546,0.551,1.428,0.559,1.976,0.016
		C109.859,24.066,109.872,23.197,109.315,22.652 M105.8,20.479c-0.637-0.26-1.371,0.061-1.641,0.686
		c-0.255,0.633,0.063,1.395,0.694,1.645c0.656,0.26,1.382-0.055,1.637-0.699C106.755,21.467,106.441,20.744,105.8,20.479
		 M102.014,20.023c-0.609-0.002-1.115,0.498-1.115,1.115c0.012,0.576,0.49,1.086,1.113,1.088c0.593,0.012,1.104-0.49,1.094-1.1
		C103.117,20.543,102.617,20.031,102.014,20.023 M98.369,21.15c-0.426,0.17-0.621,0.652-0.456,1.066
		c0.186,0.428,0.663,0.627,1.085,0.463c0.425-0.182,0.611-0.672,0.438-1.084C99.27,21.168,98.783,20.979,98.369,21.15
		 M96.607,35.266c-0.531-0.555-1.423-0.553-1.957-0.016c-0.561,0.555-0.569,1.432-0.025,1.979c0.556,0.545,1.437,0.549,1.982,0.016
		C97.157,36.695,97.157,35.813,96.607,35.266 M99.102,37.063c-0.644-0.268-1.373,0.061-1.641,0.707
		c-0.251,0.643,0.069,1.381,0.709,1.627c0.629,0.256,1.367-0.031,1.626-0.68C100.057,38.064,99.75,37.338,99.102,37.063
		 M101.946,37.633c-0.601-0.01-1.096,0.494-1.106,1.102c0.011,0.627,0.506,1.104,1.099,1.119c0.613-0.014,1.107-0.492,1.121-1.105
		C103.069,38.146,102.569,37.648,101.946,37.633 M104.96,37.207c-0.412,0.168-0.627,0.635-0.443,1.064
		c0.172,0.42,0.658,0.627,1.072,0.461c0.42-0.18,0.629-0.646,0.439-1.082C105.866,37.227,105.378,37.025,104.96,37.207
		 M94.055,34.273c0.601-0.23,0.912-0.902,0.665-1.527c-0.221-0.604-0.911-0.902-1.507-0.654c-0.605,0.234-0.898,0.912-0.669,1.508
		C92.785,34.199,93.452,34.51,94.055,34.273 M93.162,30.699c0.489,0.004,0.905-0.398,0.917-0.9c0.011-0.494-0.407-0.906-0.88-0.916
		c-0.51-0.01-0.926,0.381-0.937,0.883C92.253,30.275,92.658,30.689,93.162,30.699 M93.669,27.303
		c0.399,0.148,0.84-0.031,1.003-0.418c0.153-0.383-0.022-0.828-0.405-0.996c-0.389-0.166-0.845,0.029-0.995,0.414
		C93.112,26.686,93.292,27.131,93.669,27.303 M110.745,27.789c0.606-0.229,0.895-0.912,0.647-1.52
		c-0.228-0.592-0.896-0.904-1.483-0.67c-0.621,0.246-0.922,0.916-0.687,1.518C109.463,27.729,110.138,28.021,110.745,27.789
		 M110.759,31.006c0.508,0,0.916-0.398,0.918-0.9c0.017-0.496-0.383-0.918-0.889-0.924c-0.489-0.008-0.918,0.381-0.93,0.889
		C109.863,30.568,110.263,30.982,110.759,31.006 M109.682,33.977c0.394,0.168,0.834-0.021,0.998-0.406
		c0.16-0.383-0.023-0.83-0.407-0.99c-0.39-0.172-0.826,0.014-0.979,0.404C109.119,33.379,109.318,33.826,109.682,33.977
		 M95.327,24.328c0.302,0.301,0.785,0.314,1.079-0.002c0.287-0.291,0.299-0.775-0.002-1.068c-0.299-0.293-0.775-0.289-1.074,0
		C95.042,23.551,95.042,24.035,95.327,24.328 M107.538,36.617c0.313,0.303,0.78,0.314,1.079-0.006
		c0.299-0.275,0.315-0.742,0.004-1.043c-0.29-0.311-0.784-0.305-1.072-0.02C107.255,35.848,107.253,36.336,107.538,36.617
		 M100.581,23.541c-0.604,0.121-0.972,0.711-0.854,1.283c0.149,0.588,0.72,0.963,1.317,0.824c0.581-0.129,0.951-0.707,0.822-1.293
		C101.733,23.775,101.148,23.4,100.581,23.541 M97.397,25.32c-0.392,0.416-0.412,1.068-0.007,1.471c0.407,0.412,1.061,0.416,1.486,0
		c0.397-0.402,0.397-1.055-0.014-1.471C98.457,24.918,97.798,24.922,97.397,25.32 M96.094,28.383
		c-0.106,0.389,0.113,0.758,0.503,0.877c0.36,0.092,0.747-0.131,0.844-0.5c0.108-0.377-0.13-0.756-0.493-0.857
		C96.58,27.803,96.199,28.018,96.094,28.383 M102.969,34.285c-0.563,0.141-0.955,0.721-0.814,1.289
		c0.122,0.594,0.719,0.967,1.299,0.838c0.591-0.123,0.951-0.719,0.832-1.301C104.147,34.516,103.568,34.168,102.969,34.285
		 M105.155,33.137c-0.397,0.414-0.397,1.078,0.007,1.492c0.417,0.396,1.07,0.391,1.448-0.004c0.427-0.404,0.438-1.08,0.026-1.475
		C106.216,32.736,105.573,32.736,105.155,33.137 M106.579,31.182c-0.088,0.396,0.108,0.764,0.489,0.867s0.771-0.137,0.868-0.5
		c0.1-0.371-0.129-0.75-0.5-0.846C107.062,30.594,106.678,30.82,106.579,31.182 M104.851,25.152c0.19-0.48-0.066-1.055-0.56-1.229
		c-0.51-0.195-1.041,0.057-1.253,0.57c-0.194,0.49,0.072,1.039,0.571,1.23C104.116,25.893,104.658,25.654,104.851,25.152
		 M100.982,35.482c0.198-0.484-0.067-1.055-0.553-1.229c-0.51-0.201-1.047,0.051-1.256,0.57c-0.191,0.486,0.069,1.035,0.571,1.23
		C100.25,36.221,100.793,35.98,100.982,35.482 M106.7,27.186c0.317-0.26,0.354-0.703,0.126-1.01
		c-0.255-0.295-0.703-0.35-1.008-0.117c-0.297,0.232-0.36,0.686-0.107,0.992C105.943,27.357,106.395,27.436,106.7,27.186
		 M98.182,33.869c0.32-0.262,0.358-0.699,0.129-1.008c-0.26-0.299-0.699-0.354-1.011-0.119c-0.301,0.229-0.354,0.682-0.108,0.99
		C97.423,34.041,97.877,34.119,98.182,33.869 M107.349,29.391c0.269-0.061,0.439-0.328,0.396-0.604
		c-0.064-0.283-0.336-0.475-0.608-0.402c-0.288,0.045-0.452,0.322-0.4,0.588C106.792,29.256,107.066,29.453,107.349,29.391
		 M96.932,31.566c0.271-0.061,0.441-0.33,0.396-0.604c-0.061-0.279-0.332-0.471-0.606-0.4c-0.289,0.047-0.458,0.322-0.4,0.584
		C96.378,31.436,96.647,31.631,96.932,31.566"/>
</g>
</svg>
