<?xml version="1.0" encoding="utf-8"?>
<!-- Generator: Adobe Illustrator 16.0.3, SVG Export Plug-In . SVG Version: 6.00 Build 0)  -->
<!DOCTYPE svg PUBLIC "-//W3C//DTD SVG 1.1//EN" "http://www.w3.org/Graphics/SVG/1.1/DTD/svg11.dtd">
<svg version="1.1"
	 id="svg2" xmlns:dc="http://purl.org/dc/elements/1.1/" xmlns:cc="http://creativecommons.org/ns#" xmlns:svg="http://www.w3.org/2000/svg" xmlns:inkscape="http://www.inkscape.org/namespaces/inkscape" xmlns:sodipodi="http://sodipodi.sourceforge.net/DTD/sodipodi-0.dtd" xmlns:rdf="http://www.w3.org/1999/02/22-rdf-syntax-ns#" sodipodi:docname="logoMastersaf.svg" inkscape:version="0.48.5 r10040"
	 xmlns="http://www.w3.org/2000/svg" xmlns:xlink="http://www.w3.org/1999/xlink" x="0px" y="0px" width="416px" height="50px"
	 viewBox="0 0 416 50" enable-background="new 0 0 416 50" xml:space="preserve">
<g>
	
		<sodipodi:namedview  id="base" showgrid="false" inkscape:cy="43.484436" pagecolor="#ffffff" inkscape:zoom="1" borderopacity="1.0" bordercolor="#666666" inkscape:cx="224.90337" inkscape:window-y="32" inkscape:window-x="-8" inkscape:pageopacity="0.0" inkscape:window-height="988" inkscape:window-maximized="1" inkscape:pageshadow="2" inkscape:window-width="1680" inkscape:current-layer="layer1" inkscape:document-units="px">
		</sodipodi:namedview>
	<path id="path3005" inkscape:connector-curvature="0" fill="#86888B" d="M247.928,7.68V6.367c0-0.045-0.035-0.08-0.08-0.08h-0.164
		c-0.031,0-0.061,0.02-0.074,0.049l-0.385,0.783c-0.01,0.018-0.014,0.027-0.021,0.027s-0.013-0.013-0.021-0.027l-0.386-0.783
		c-0.016-0.027-0.041-0.049-0.073-0.049h-0.164c-0.043,0-0.08,0.035-0.08,0.08V7.68c0,0.02,0.016,0.031,0.035,0.031h0.2
		c0.021,0,0.031-0.02,0.031-0.039V6.805c0-0.013,0.004-0.02,0.008-0.02c0.002,0,0.006,0,0.013,0.013l0.325,0.716
		c0.013,0.022,0.037,0.034,0.063,0.034h0.104c0.025,0,0.053-0.013,0.064-0.034l0.322-0.716c0.004,0,0.01-0.013,0.012-0.013
		c0.004,0,0.006,0,0.006,0.02v0.867c0,0.02,0.014,0.039,0.031,0.039h0.203c0.018,0,0.033-0.013,0.033-0.031H247.928z M246.273,6.482
		V6.324c0-0.023-0.021-0.038-0.041-0.038h-1.078c-0.021,0-0.041,0.015-0.041,0.038v0.158c0,0.021,0.02,0.035,0.041,0.035h0.4v1.15
		c0,0.021,0.018,0.039,0.038,0.039h0.197c0.022,0,0.041-0.018,0.041-0.039v-1.15h0.399C246.254,6.518,246.273,6.504,246.273,6.482
		L246.273,6.482z M225.857,11.427c0,0.867,0.031,0.89,0.815,0.89h2.617c0.11,0,0.207,0.095,0.207,0.207v0.66
		c0,0.146-0.054,0.198-0.207,0.219c-0.332,0.053-1.006,0.144-2.233,0.144c-1.72,0-2.627,0.013-2.627-2.119V8.156
		c0-2.131,0.907-2.118,2.627-2.118c1.229,0,1.901,0.093,2.233,0.144c0.153,0.021,0.207,0.072,0.207,0.219v0.66
		c0,0.113-0.097,0.207-0.207,0.207h-2.617c-0.784,0-0.815,0.023-0.815,0.889v0.947h3.311c0.113,0,0.205,0.094,0.205,0.207v0.746
		c0,0.111-0.092,0.207-0.205,0.207h-3.311V11.427L225.857,11.427z M241.148,13.552c-0.912,0-1.84-0.157-2.338-0.271
		c-0.103-0.021-0.195-0.092-0.195-0.206v-0.746c0-0.112,0.094-0.196,0.195-0.196c0.012,0,0.012,0,0.022,0
		c0.412,0.053,1.381,0.188,2.336,0.188c0.92,0,1.201-0.329,1.201-0.928c0-0.776-1.851-1.205-2.754-1.578
		c-0.9-0.371-1.222-1.084-1.222-1.808c0-1.138,0.918-1.965,2.84-1.965c0.986,0,1.89,0.187,2.238,0.271
		c0.104,0.021,0.187,0.093,0.187,0.196v0.765c0,0.104-0.07,0.188-0.175,0.188c-0.012,0-0.012,0-0.021,0
		c-0.682-0.063-1.389-0.188-2.287-0.188c-0.768,0-1.342,0.27-1.342,0.733c0,0.341,0.392,0.652,0.849,0.835
		c0.459,0.182,1.063,0.416,1.748,0.691c0.871,0.354,1.438,0.865,1.438,1.857C243.869,12.434,243.219,13.552,241.148,13.552
		L241.148,13.552z M235.652,8.374c0-0.774-0.603-1.104-1.639-1.104c-0.216,0-1.156,0.02-1.345,0.041v2.241
		c0.168,0.015,1.172,0.033,1.345,0.033c1.065,0,1.639-0.207,1.639-1.114V8.374L235.652,8.374z M237.201,13.465h-1.262
		c-0.113,0-0.154-0.104-0.205-0.208l-1.49-2.507h-0.23c-0.268,0-1.104-0.029-1.344-0.042v2.549c0,0.114-0.08,0.207-0.193,0.207
		h-1.033c-0.114,0-0.207-0.095-0.207-0.207V6.48c0-0.207,0.121-0.278,0.33-0.31c0.537-0.083,1.695-0.134,2.447-0.134
		c1.596,0,3.063,0.568,3.063,2.336v0.093c0,1.095-0.547,1.693-1.396,2.023l1.625,2.767c0.021,0.031,0.021,0.061,0.021,0.083
		c0,0.072-0.041,0.124-0.125,0.124L237.201,13.465L237.201,13.465z M223.16,7.318h-2.063v5.939c0,0.114-0.095,0.207-0.209,0.207
		h-1.021c-0.115,0-0.209-0.095-0.209-0.207V7.318h-2.063c-0.113,0-0.207-0.071-0.207-0.186V6.316c0-0.115,0.094-0.197,0.207-0.197
		h5.563c0.11,0,0.205,0.082,0.205,0.197v0.816C223.367,7.248,223.271,7.318,223.16,7.318z M213.262,13.546
		c-1.662,0-3.096-0.724-3.096-2.926V6.316c0-0.115,0.094-0.197,0.209-0.197h1.021c0.114,0,0.207,0.082,0.207,0.197v4.304
		c0,1.179,0.545,1.737,1.657,1.737c1.119,0,1.662-0.56,1.662-1.737V6.316c0-0.115,0.095-0.197,0.207-0.197h1.022
		c0.115,0,0.207,0.082,0.207,0.197v4.304C216.361,12.823,214.93,13.546,213.262,13.546L213.262,13.546z M204.98,11.427
		c0,0.867,0.033,0.89,0.814,0.89h2.619c0.112,0,0.207,0.095,0.207,0.207v0.66c0,0.146-0.054,0.198-0.207,0.219
		c-0.332,0.053-1.004,0.144-2.234,0.144c-1.717,0-2.625,0.013-2.625-2.119V8.156c0-2.131,0.908-2.118,2.625-2.118
		c1.23,0,1.902,0.093,2.234,0.144c0.153,0.021,0.207,0.072,0.207,0.219v0.66c0,0.113-0.095,0.207-0.207,0.207h-2.619
		c-0.781,0-0.814,0.023-0.814,0.889v0.947h3.311c0.113,0,0.205,0.094,0.205,0.207v0.746c0,0.111-0.092,0.207-0.205,0.207h-3.311
		V11.427L204.98,11.427z M200.549,8.374c0-0.774-0.602-1.104-1.637-1.104c-0.217,0-1.158,0.02-1.342,0.041v2.241
		c0.164,0.015,1.166,0.033,1.342,0.033c1.064,0,1.637-0.207,1.637-1.114V8.374L200.549,8.374z M202.1,13.465h-1.264
		c-0.113,0-0.154-0.104-0.205-0.208l-1.492-2.507h-0.229c-0.27,0-1.105-0.029-1.342-0.042v2.549c0,0.114-0.084,0.207-0.199,0.207
		h-1.033c-0.113,0-0.207-0.095-0.207-0.207V6.48c0-0.207,0.125-0.278,0.332-0.31c0.539-0.083,1.695-0.134,2.449-0.134
		c1.594,0,3.063,0.568,3.063,2.336v0.093c0,1.095-0.547,1.693-1.395,2.023l1.623,2.767c0.02,0.031,0.02,0.061,0.02,0.083
		c0,0.072-0.041,0.124-0.123,0.124v0.002L202.1,13.465L202.1,13.465z M182.01,9.264c0-1.365-0.826-1.975-1.838-1.975
		c-1.014,0-1.838,0.609-1.838,1.975v1.058c0,1.364,0.824,1.975,1.838,1.975c1.012,0,1.838-0.608,1.838-1.975V9.264z M180.172,13.546
		c-1.705,0-3.285-0.95-3.285-3.226V9.262c0-2.275,1.58-3.225,3.285-3.225c1.707,0,3.285,0.951,3.285,3.225v1.059
		C183.457,12.596,181.877,13.546,180.172,13.546z M172.863,13.546c-0.914,0-1.84-0.157-2.336-0.272
		c-0.105-0.021-0.199-0.092-0.199-0.205v-0.745c0-0.112,0.094-0.196,0.199-0.196c0.008,0,0.008,0,0.02,0
		c0.414,0.053,1.381,0.188,2.338,0.188c0.92,0,1.199-0.33,1.199-0.93c0-0.775-1.848-1.205-2.752-1.578
		c-0.9-0.371-1.219-1.082-1.219-1.807c0-1.139,0.916-1.965,2.84-1.965c0.984,0,1.887,0.188,2.236,0.271
		c0.105,0.02,0.186,0.092,0.186,0.195v0.766c0,0.103-0.07,0.186-0.174,0.186c-0.012,0-0.012,0-0.021,0
		c-0.684-0.061-1.391-0.188-2.291-0.188c-0.764,0-1.34,0.27-1.34,0.733c0,0.34,0.389,0.653,0.848,0.835
		c0.457,0.182,1.063,0.416,1.748,0.691c0.875,0.353,1.439,0.865,1.439,1.857C175.584,12.43,174.932,13.546,172.863,13.546
		L172.863,13.546z M190.963,13.46h-1.045c-0.25,0-0.465,0-0.629-0.372l-2.803-4.699c-0.031-0.061-0.064-0.084-0.094-0.084
		c-0.03,0-0.053,0.023-0.053,0.084v4.863c0,0.114-0.082,0.208-0.195,0.208h-0.877c-0.115,0-0.209-0.095-0.209-0.208V6.527
		c0-0.229,0.186-0.413,0.412-0.413h1.119c0.217,0,0.328,0.061,0.455,0.333l2.916,4.975c0.02,0.053,0.049,0.084,0.082,0.084
		c0.021,0,0.051-0.033,0.051-0.095v-5.1c0-0.114,0.082-0.195,0.197-0.195h0.889c0.113,0,0.197,0.081,0.197,0.195v6.735
		C191.377,13.273,191.189,13.46,190.963,13.46L190.963,13.46z M168.252,13.46h-1.045c-0.092,0-0.164-0.104-0.164-0.208V8.781
		c0-0.073-0.012-0.102-0.035-0.102c-0.008,0-0.027,0.031-0.051,0.062l-1.668,3.696c-0.063,0.114-0.195,0.178-0.33,0.178h-0.539
		c-0.133,0-0.268-0.063-0.328-0.178l-1.682-3.696c-0.021-0.031-0.043-0.062-0.051-0.062c-0.021,0-0.031,0.031-0.031,0.102v4.471
		c0,0.102-0.074,0.208-0.166,0.208h-1.043c-0.096,0-0.18-0.054-0.18-0.155V6.527c0-0.229,0.188-0.413,0.414-0.413h0.85
		c0.164,0,0.309,0.103,0.383,0.249l1.982,4.039c0.051,0.093,0.072,0.145,0.115,0.145c0.041,0,0.063-0.051,0.113-0.145l1.984-4.039
		c0.07-0.146,0.217-0.249,0.381-0.249h0.85c0.227,0,0.414,0.185,0.414,0.413v6.777C168.428,13.406,168.344,13.46,168.252,13.46
		L168.252,13.46z M157.893,9.258c0-1.365-0.824-1.974-1.838-1.974c-1.014,0-1.838,0.608-1.838,1.974v1.059
		c0,1.365,0.826,1.974,1.838,1.974c1.014,0,1.838-0.608,1.838-1.974V9.258z M156.055,13.541c-1.705,0-3.285-0.95-3.285-3.227V9.257
		c0-2.274,1.58-3.226,3.285-3.226c1.707,0,3.287,0.951,3.287,3.226v1.058C159.342,12.591,157.762,13.541,156.055,13.541z
		 M150.932,13.459h-1.021c-0.117,0-0.209-0.095-0.209-0.207v-2.995h-3.275v2.995c0,0.114-0.094,0.207-0.207,0.207h-1.023
		c-0.115,0-0.207-0.095-0.207-0.207V6.311c0-0.114,0.092-0.195,0.207-0.195h1.023c0.113,0,0.207,0.081,0.207,0.195v2.687h3.275
		V6.311c0-0.114,0.092-0.195,0.209-0.195h1.021c0.111,0,0.205,0.081,0.205,0.195v6.942
		C151.137,13.366,151.043,13.459,150.932,13.459z M143.471,7.313h-2.063v5.939c0,0.114-0.094,0.207-0.209,0.207h-1.021
		c-0.115,0-0.207-0.095-0.207-0.207V7.313h-2.064c-0.113,0-0.207-0.071-0.207-0.186V6.311c0-0.114,0.094-0.195,0.207-0.195h5.563
		c0.115,0,0.209,0.081,0.209,0.195v0.817C143.678,7.243,143.584,7.313,143.471,7.313"/>
	<g>
		<path fill="#F6891F" d="M138.23,23.04h3.859v17.226h9.385V43.6H138.23V23.04z"/>
		<path fill="#F6891F" d="M154.342,23.04h13.83v3.334h-9.971v5.001h9.322v3.334h-9.322v5.557h9.971V43.6h-13.83V23.04z"/>
		<path fill="#F6891F" d="M181.598,22.67c2.5,0,4.568,0.401,6.574,1.234l-0.586,3.118c-1.697-0.617-3.549-1.049-5.648-1.049
			c-4.971,0-7.439,2.747-7.439,7.5c0,4.754,2.471,7.348,7.039,7.348c1.08,0,2.16-0.094,2.963-0.277v-6.452h3.643v8.892
			c-1.389,0.523-4.197,0.986-6.637,0.986c-7.379,0-10.867-4.63-10.867-10.525C170.639,26.961,174.467,22.67,181.598,22.67z"/>
		<path fill="#F6891F" d="M197.986,23.04h4.291l7.532,20.56h-3.92l-1.637-4.848h-8.242l-1.635,4.848h-3.92L197.986,23.04z
			 M197.09,35.511h6.082l-3.025-9.013L197.09,35.511z"/>
		<path fill="#F6891F" d="M212.244,23.04h3.857v17.226h9.385V43.6h-13.242V23.04L212.244,23.04z"/>
		<path fill="#F6891F" d="M243.725,22.67c6.545,0,9.662,4.6,9.662,10.648c0,6.052-3.117,10.648-9.662,10.648
			c-6.543,0-9.662-4.599-9.662-10.648C234.063,27.27,237.182,22.67,243.725,22.67z M249.527,33.318c0-4.32-1.789-7.346-5.803-7.346
			c-4.043,0-5.804,3.023-5.804,7.346s1.761,7.348,5.804,7.348C247.738,40.666,249.527,37.641,249.527,33.318z"/>
		<path fill="#F6891F" d="M256.625,23.04h3.826l9.91,14.169V23.04h3.766V43.6h-3.828l-9.939-14.17V43.6h-3.733L256.625,23.04
			L256.625,23.04z"/>
		<path fill="#F6891F" d="M278.445,23.04h13.83v3.334h-9.971v5.001h9.321v3.334h-9.321v5.557h9.971V43.6h-13.83V23.04z"/>
	</g>
	<g>
		<path fill="#F6891F" d="M297.057,23.781v3.84h-0.858v-3.84h-1.314v-0.743h3.496v0.743H297.057z"/>
		<path fill="#F6891F" d="M298.998,23.038h0.867l1.492,3.165l1.494-3.165h0.858v4.583h-0.832v-2.904l-1.103,2.326h-0.848
			l-1.102-2.326v2.904h-0.832v-4.583H298.998z"/>
	</g>
</g>
</svg>
