<?xml version="1.0" encoding="utf-8"?>
<!-- Generator: Adobe Illustrator 16.0.3, SVG Export Plug-In . SVG Version: 6.00 Build 0)  -->
<!DOCTYPE svg PUBLIC "-//W3C//DTD SVG 1.1//EN" "http://www.w3.org/Graphics/SVG/1.1/DTD/svg11.dtd">
<svg version="1.1"
	 id="svg2" xmlns:dc="http://purl.org/dc/elements/1.1/" xmlns:cc="http://creativecommons.org/ns#" xmlns:rdf="http://www.w3.org/1999/02/22-rdf-syntax-ns#"
	 xmlns="http://www.w3.org/2000/svg" xmlns:xlink="http://www.w3.org/1999/xlink" x="0px" y="0px" width="396.257px" height="50px"
	 viewBox="-10.829 0 396.257 50" enable-background="new -10.829 0 396.257 50" xml:space="preserve">
<g>
	<path fill="#999999" d="M233.586,21.254h-3.121v8.984c0,0.174-0.144,0.316-0.313,0.316h-1.549c-0.17,0-0.313-0.146-0.313-0.316
		v-8.984h-3.123c-0.172,0-0.314-0.105-0.314-0.273v-1.238c0-0.176,0.144-0.295,0.314-0.295h8.42c0.172,0,0.309,0.12,0.309,0.295
		v1.238C233.897,21.148,233.758,21.254,233.586,21.254z M244.867,30.557h-1.541c-0.179,0-0.318-0.145-0.318-0.314v-4.526h-4.951
		v4.526c0,0.172-0.145,0.314-0.311,0.314h-1.552c-0.174,0-0.313-0.145-0.313-0.314v-10.5c0-0.176,0.143-0.295,0.313-0.295h1.552
		c0.166,0,0.311,0.12,0.311,0.295v4.063h4.951v-4.063c0-0.176,0.145-0.295,0.318-0.295h1.541c0.174,0,0.313,0.12,0.313,0.295V30.24
		C245.178,30.412,245.041,30.557,244.867,30.557z M252.617,30.677c-2.576,0-4.972-1.438-4.972-4.877v-1.601
		c0-3.438,2.396-4.877,4.972-4.877c2.588,0,4.973,1.438,4.973,4.877v1.602C257.588,29.24,255.205,30.677,252.617,30.677z
		 M255.401,24.199c0-2.066-1.248-2.985-2.782-2.985c-1.529,0-2.775,0.919-2.775,2.985v1.602c0,2.064,1.246,2.984,2.775,2.984
		c1.534,0,2.782-0.92,2.782-2.984V24.199z M271.067,30.557h-1.58c-0.139,0-0.252-0.16-0.252-0.314v-6.759
		c0-0.112-0.018-0.157-0.047-0.157c-0.014,0-0.047,0.045-0.078,0.092l-2.521,5.596c-0.096,0.168-0.299,0.262-0.498,0.262h-0.814
		c-0.2,0-0.411-0.094-0.498-0.262l-2.545-5.596c-0.03-0.047-0.063-0.092-0.075-0.092c-0.027,0-0.048,0.045-0.048,0.157v6.759
		c0,0.154-0.106,0.314-0.25,0.314h-1.579c-0.146,0-0.271-0.082-0.271-0.24V20.069c0-0.346,0.283-0.622,0.631-0.622h1.277
		c0.25,0,0.473,0.157,0.58,0.375l3.002,6.107c0.072,0.137,0.106,0.213,0.176,0.213c0.063,0,0.09-0.076,0.172-0.213l2.994-6.107
		c0.115-0.219,0.334-0.375,0.582-0.375h1.279c0.346,0,0.631,0.276,0.631,0.622v10.248C271.334,30.475,271.207,30.557,271.067,30.557
		z M305.416,30.557h-1.582c-0.373,0-0.705,0-0.951-0.566l-4.242-7.1c-0.043-0.1-0.094-0.133-0.141-0.133
		c-0.043,0-0.074,0.033-0.074,0.133v7.352c0,0.172-0.127,0.314-0.303,0.314h-1.324c-0.178,0-0.313-0.145-0.313-0.314V20.069
		c0-0.346,0.279-0.622,0.621-0.622h1.691c0.326,0,0.496,0.092,0.688,0.496l4.412,7.53c0.027,0.077,0.076,0.125,0.125,0.125
		c0.027,0,0.078-0.048,0.078-0.146v-7.709c0-0.176,0.123-0.295,0.297-0.295h1.343c0.174,0,0.301,0.12,0.301,0.295V29.93
		C306.041,30.271,305.754,30.557,305.416,30.557z M278.043,30.684c-1.381,0-2.789-0.234-3.537-0.412
		c-0.158-0.029-0.299-0.14-0.299-0.311v-1.123c0-0.172,0.141-0.303,0.299-0.303c0.01,0,0.01,0,0.031,0
		c0.625,0.084,2.084,0.279,3.53,0.279c1.396,0,1.814-0.496,1.814-1.398c0-1.176-2.793-1.818-4.16-2.388
		c-1.363-0.561-1.846-1.64-1.846-2.733c0-1.719,1.385-2.971,4.291-2.971c1.494,0,2.858,0.279,3.389,0.414
		c0.158,0.028,0.281,0.141,0.281,0.295v1.157c0,0.155-0.109,0.279-0.264,0.279c-0.021,0-0.021,0-0.033,0
		c-1.031-0.091-2.104-0.285-3.461-0.285c-1.154,0-2.029,0.408-2.029,1.11c0,0.518,0.59,0.988,1.281,1.267
		c0.692,0.271,1.604,0.627,2.646,1.05c1.318,0.528,2.176,1.303,2.176,2.805C282.156,28.996,281.17,30.684,278.043,30.684z
		 M289.092,30.677c-2.574,0-4.965-1.438-4.965-4.877v-1.601c0-3.438,2.391-4.877,4.965-4.877c2.58,0,4.969,1.438,4.969,4.877v1.602
		C294.061,29.24,291.672,30.677,289.092,30.677z M291.873,24.199c0-2.066-1.246-2.985-2.779-2.985c-1.531,0-2.779,0.919-2.779,2.985
		v1.602c0,2.064,1.248,2.984,2.779,2.984c1.533,0,2.779-0.92,2.779-2.984V24.199z M322.256,30.557h-1.912
		c-0.164,0-0.229-0.16-0.309-0.314l-2.252-3.789h-0.349c-0.408,0-1.676-0.045-2.031-0.063v3.854c0,0.172-0.12,0.314-0.299,0.314
		h-1.563c-0.17,0-0.312-0.145-0.312-0.314v-10.25c0-0.311,0.185-0.428,0.496-0.469c0.813-0.126,2.563-0.205,3.705-0.205
		c2.406,0,4.629,0.859,4.629,3.534v0.14c0,1.658-0.83,2.563-2.104,3.063l2.449,4.185c0.032,0.047,0.032,0.094,0.032,0.127
		C322.448,30.475,322.381,30.557,322.256,30.557z M319.912,22.854c0-1.168-0.91-1.669-2.478-1.669c-0.328,0-1.754,0.027-2.028,0.057
		v3.393c0.25,0.019,1.764,0.048,2.028,0.048c1.611,0,2.478-0.312,2.478-1.688V22.854z M326.617,27.475
		c0,1.313,0.047,1.342,1.229,1.342h3.961c0.172,0,0.314,0.145,0.314,0.314v0.998c0,0.219-0.076,0.301-0.314,0.33
		c-0.504,0.084-1.52,0.218-3.379,0.218c-2.6,0-3.973,0.021-3.973-3.202v-4.953c0-3.222,1.373-3.201,3.973-3.201
		c1.859,0,2.875,0.144,3.379,0.219c0.236,0.027,0.314,0.11,0.314,0.33v1c0,0.172-0.144,0.316-0.314,0.316h-3.961
		c-1.182,0-1.229,0.029-1.229,1.336v1.438h5.006c0.168,0,0.311,0.142,0.311,0.313V25.4c0,0.168-0.143,0.313-0.311,0.313h-5.006
		V27.475z M339.141,30.677c-2.518,0-4.686-1.093-4.686-4.423V19.74c0-0.175,0.146-0.293,0.313-0.293h1.551
		c0.175,0,0.313,0.119,0.313,0.293v6.514c0,1.777,0.822,2.627,2.512,2.627c1.688,0,2.515-0.85,2.515-2.627V19.74
		c0-0.175,0.139-0.293,0.313-0.293h1.541c0.182,0,0.32,0.119,0.32,0.293v6.514C343.83,29.584,341.66,30.677,339.141,30.677z
		 M354.108,21.254h-3.118v8.984c0,0.174-0.14,0.316-0.313,0.316h-1.549c-0.17,0-0.316-0.146-0.316-0.316v-8.984h-3.117
		c-0.166,0-0.313-0.105-0.313-0.273v-1.238c0-0.176,0.146-0.295,0.313-0.295h8.416c0.17,0,0.313,0.12,0.313,0.295v1.238
		C354.42,21.148,354.278,21.254,354.108,21.254z M375.348,30.557h-1.908c-0.172,0-0.233-0.16-0.313-0.314l-2.254-3.789h-0.351
		c-0.401,0-1.668-0.045-2.03-0.063v3.854c0,0.172-0.125,0.314-0.296,0.314h-1.563c-0.174,0-0.311-0.145-0.311-0.314v-10.25
		c0-0.311,0.18-0.428,0.497-0.469c0.814-0.126,2.563-0.205,3.699-0.205c2.412,0,4.629,0.859,4.629,3.534v0.14
		c0,1.658-0.823,2.563-2.104,3.063l2.455,4.185c0.037,0.047,0.037,0.094,0.037,0.127C375.539,30.475,375.475,30.557,375.348,30.557z
		 M373.002,22.854c0-1.168-0.912-1.669-2.479-1.669c-0.323,0-1.744,0.027-2.03,0.057v3.393c0.256,0.019,1.768,0.048,2.03,0.048
		c1.617,0,2.479-0.312,2.479-1.688V22.854z M381.315,30.684c-1.377,0-2.78-0.234-3.526-0.412c-0.156-0.029-0.308-0.14-0.308-0.311
		v-1.123c0-0.172,0.146-0.303,0.308-0.303c0.016,0,0.016,0,0.016,0c0.639,0.084,2.1,0.279,3.547,0.279
		c1.39,0,1.816-0.496,1.816-1.398c0-1.176-2.801-1.818-4.17-2.388c-1.357-0.561-1.836-1.64-1.836-2.733
		c0-1.719,1.381-2.971,4.286-2.971c1.494,0,2.855,0.279,3.386,0.414c0.16,0.028,0.287,0.141,0.287,0.295v1.157
		c0,0.155-0.111,0.279-0.269,0.279c-0.021,0-0.021,0-0.021,0c-1.047-0.091-2.113-0.285-3.472-0.285c-1.162,0-2.03,0.408-2.03,1.11
		c0,0.518,0.59,0.988,1.284,1.267c0.693,0.271,1.599,0.627,2.646,1.05c1.313,0.528,2.168,1.303,2.168,2.805
		C385.428,28.996,384.446,30.684,381.315,30.684z M358.186,27.475c0,1.313,0.056,1.342,1.236,1.342h3.957
		c0.17,0,0.313,0.145,0.313,0.314v0.998c0,0.219-0.08,0.301-0.313,0.33c-0.5,0.084-1.517,0.218-3.373,0.218
		c-2.604,0-3.979,0.021-3.979-3.202v-4.953c0-3.222,1.373-3.201,3.979-3.201c1.856,0,2.873,0.144,3.373,0.219
		c0.233,0.027,0.313,0.11,0.313,0.33v1c0,0.172-0.146,0.316-0.313,0.316h-3.957c-1.185,0-1.236,0.029-1.236,1.336v1.438h5.01
		c0.177,0,0.313,0.142,0.313,0.313V25.4c0,0.168-0.137,0.313-0.313,0.313h-5.01V27.475z"/>
	<path fill="#FF8000" d="M184.38,17.687c0.272,0.499,0.093,1.133-0.418,1.408c-0.512,0.278-1.144,0.079-1.416-0.429
		c-0.28-0.5-0.084-1.135,0.416-1.407C183.474,16.979,184.115,17.172,184.38,17.687z M179.226,25.854
		c-0.298,0.16-0.41,0.537-0.246,0.836c0.166,0.307,0.537,0.406,0.828,0.236c0.304-0.146,0.418-0.531,0.248-0.83
		C179.894,25.802,179.527,25.691,179.226,25.854z M179.123,23.339c-0.347,0.188-0.472,0.62-0.293,0.973
		c0.196,0.347,0.627,0.474,0.978,0.283c0.344-0.187,0.479-0.625,0.291-0.966C179.908,23.277,179.474,23.148,179.123,23.339z
		 M179.773,20.923c-0.396,0.22-0.547,0.712-0.34,1.11c0.227,0.393,0.717,0.551,1.11,0.33c0.396-0.211,0.547-0.712,0.34-1.109
		C180.666,20.856,180.168,20.714,179.773,20.923z M181.101,18.832c-0.457,0.25-0.623,0.8-0.373,1.254
		c0.237,0.445,0.795,0.617,1.237,0.369c0.459-0.244,0.623-0.803,0.379-1.248C182.111,18.765,181.546,18.588,181.101,18.832z
		 M180.084,28.227c-0.256,0.133-0.344,0.441-0.207,0.707c0.133,0.236,0.442,0.338,0.701,0.199c0.243-0.137,0.336-0.447,0.198-0.691
		C180.638,28.193,180.326,28.092,180.084,28.227z M191.955,19.684c0.162,0.292,0.532,0.4,0.84,0.251
		c0.293-0.172,0.41-0.543,0.248-0.845c-0.168-0.297-0.537-0.414-0.832-0.249C191.906,19.012,191.797,19.381,191.955,19.684z
		 M189.869,18.347c0.188,0.353,0.635,0.479,0.967,0.292c0.358-0.191,0.483-0.622,0.297-0.971c-0.187-0.352-0.625-0.478-0.969-0.291
		C189.819,17.567,189.684,18.006,189.869,18.347z M187.461,17.707c0.209,0.396,0.706,0.545,1.098,0.328
		c0.408-0.218,0.553-0.713,0.34-1.11c-0.211-0.396-0.707-0.548-1.105-0.328C187.392,16.813,187.25,17.306,187.461,17.707z
		 M184.941,17.807c0.237,0.455,0.807,0.615,1.258,0.375c0.443-0.243,0.602-0.803,0.365-1.254c-0.232-0.441-0.806-0.612-1.252-0.371
		C184.867,16.801,184.705,17.365,184.941,17.807z M193.526,21.563c0.132,0.244,0.438,0.332,0.688,0.2
		c0.246-0.132,0.34-0.437,0.203-0.687c-0.133-0.254-0.438-0.347-0.695-0.221C193.479,20.996,193.381,21.313,193.526,21.563z
		 M191.746,31.326c-0.271-0.508-0.904-0.703-1.41-0.426c-0.512,0.271-0.701,0.904-0.424,1.412c0.276,0.508,0.909,0.693,1.416,0.426
		C191.836,32.457,192.02,31.826,191.746,31.326z M182.336,30.316c-0.158-0.295-0.53-0.404-0.828-0.25
		c-0.299,0.158-0.416,0.537-0.25,0.832c0.156,0.301,0.522,0.41,0.832,0.244C182.38,30.994,182.496,30.615,182.336,30.316z
		 M184.423,31.643c-0.19-0.343-0.625-0.479-0.971-0.281c-0.354,0.189-0.479,0.617-0.287,0.971c0.183,0.346,0.617,0.475,0.959,0.293
		C184.482,32.428,184.609,31.986,184.423,31.643z M186.841,32.285c-0.213-0.395-0.719-0.537-1.121-0.328
		c-0.393,0.218-0.534,0.719-0.325,1.109c0.218,0.399,0.721,0.547,1.112,0.334C186.912,33.189,187.056,32.686,186.841,32.285z
		 M189.352,32.188c-0.242-0.451-0.801-0.609-1.252-0.375c-0.452,0.242-0.601,0.799-0.358,1.252c0.231,0.446,0.788,0.617,1.237,0.367
		C189.432,33.193,189.586,32.629,189.352,32.188z M195.063,24.151c0.301-0.175,0.414-0.551,0.258-0.843
		c-0.163-0.301-0.541-0.411-0.832-0.245c-0.299,0.158-0.413,0.533-0.25,0.836C194.397,24.189,194.774,24.301,195.063,24.151z
		 M195.176,26.656c0.348-0.188,0.473-0.625,0.281-0.969c-0.185-0.354-0.613-0.479-0.963-0.295c-0.351,0.196-0.478,0.625-0.3,0.979
		C194.383,26.717,194.832,26.843,195.176,26.656z M194.52,29.068c0.408-0.213,0.551-0.709,0.347-1.107
		c-0.224-0.396-0.716-0.549-1.115-0.338c-0.398,0.213-0.545,0.725-0.34,1.123C193.633,29.133,194.129,29.283,194.52,29.068z
		 M193.199,31.152c0.446-0.229,0.608-0.799,0.37-1.242c-0.248-0.447-0.801-0.621-1.248-0.371c-0.444,0.238-0.608,0.797-0.366,1.244
		C192.19,31.23,192.746,31.396,193.199,31.152z"/>
	<path fill="#FF8000" d="M191.432,15.19c-0.209,0.706-0.953,1.117-1.666,0.902c-0.725-0.214-1.117-0.953-0.91-1.67
		c0.209-0.712,0.951-1.117,1.67-0.913C191.24,13.722,191.649,14.47,191.432,15.19z M178.553,18.359
		c-0.352-0.094-0.721,0.102-0.823,0.456c-0.105,0.347,0.1,0.714,0.446,0.817c0.354,0.105,0.722-0.098,0.82-0.444
		C179.109,18.832,178.904,18.469,178.553,18.359z M180.884,15.798c-0.438-0.13-0.891,0.126-1.012,0.554
		c-0.133,0.439,0.114,0.893,0.551,1.018c0.433,0.131,0.89-0.121,1.021-0.555C181.569,16.381,181.322,15.926,180.884,15.798z
		 M183.871,13.992c-0.561-0.16-1.134,0.152-1.295,0.703c-0.16,0.553,0.154,1.129,0.707,1.295c0.551,0.159,1.131-0.149,1.293-0.707
		C184.73,14.731,184.414,14.158,183.871,13.992z M187.177,13.254c-0.631-0.187-1.271,0.168-1.457,0.793
		c-0.18,0.615,0.171,1.261,0.789,1.451c0.625,0.185,1.271-0.181,1.455-0.795C188.151,14.088,187.798,13.434,187.177,13.254z
		 M177.08,21.531c-0.264-0.076-0.533,0.078-0.611,0.334c-0.075,0.268,0.068,0.547,0.334,0.618c0.263,0.083,0.535-0.071,0.617-0.337
		C177.5,21.885,177.344,21.611,177.08,21.531z M197.145,24.514c-0.106,0.35,0.092,0.721,0.445,0.822
		c0.354,0.104,0.721-0.096,0.826-0.449c0.102-0.348-0.097-0.721-0.453-0.82C197.615,23.966,197.24,24.166,197.145,24.514z
		 M196.375,21.197c-0.138,0.441,0.123,0.896,0.557,1.021c0.439,0.13,0.892-0.121,1.021-0.552c0.121-0.434-0.119-0.891-0.562-1.014
		C196.963,20.523,196.498,20.771,196.375,21.197z M194.571,18.217c-0.163,0.559,0.154,1.135,0.703,1.296
		c0.55,0.157,1.123-0.162,1.289-0.71c0.166-0.549-0.145-1.126-0.701-1.288C195.313,17.354,194.737,17.668,194.571,18.217z
		 M192.03,15.896c-0.186,0.619,0.171,1.269,0.791,1.453c0.619,0.188,1.271-0.177,1.451-0.798c0.188-0.612-0.168-1.266-0.785-1.448
		C192.86,14.918,192.213,15.283,192.03,15.896z M196.871,27.857c-0.066,0.27,0.073,0.543,0.338,0.615
		c0.264,0.076,0.535-0.064,0.61-0.334c0.078-0.266-0.067-0.537-0.334-0.617C197.231,27.451,196.951,27.598,196.871,27.857z
		 M185.439,35.592c0.211-0.719-0.189-1.467-0.911-1.676c-0.714-0.209-1.462,0.197-1.666,0.91c-0.207,0.719,0.189,1.459,0.913,1.674
		C184.488,36.703,185.238,36.291,185.439,35.592z M177.15,25.49c0.104-0.35-0.094-0.716-0.447-0.824
		c-0.352-0.102-0.716,0.103-0.824,0.451c-0.106,0.353,0.103,0.719,0.451,0.82C176.675,26.05,177.045,25.845,177.15,25.49z
		 M177.918,28.807c0.127-0.438-0.123-0.893-0.551-1.014c-0.443-0.125-0.898,0.115-1.02,0.553c-0.123,0.438,0.108,0.891,0.559,1.016
		C177.336,29.496,177.787,29.24,177.918,28.807z M179.726,31.789c0.162-0.545-0.157-1.129-0.711-1.297
		c-0.554-0.16-1.121,0.16-1.289,0.709c-0.164,0.553,0.147,1.127,0.702,1.293C178.988,32.66,179.56,32.341,179.726,31.789z
		 M182.265,34.113c0.188-0.615-0.171-1.272-0.798-1.453c-0.62-0.182-1.268,0.174-1.444,0.797c-0.187,0.613,0.164,1.27,0.785,1.451
		C181.433,35.086,182.082,34.729,182.265,34.113z M195.735,31.643c0.357,0.104,0.729-0.104,0.83-0.449
		c0.104-0.348-0.104-0.719-0.448-0.818c-0.349-0.105-0.724,0.104-0.824,0.445C195.188,31.172,195.391,31.539,195.735,31.643z
		 M193.41,34.209c0.432,0.125,0.883-0.12,1.016-0.551c0.127-0.441-0.119-0.895-0.551-1.02c-0.441-0.137-0.894,0.125-1.021,0.549
		C192.725,33.625,192.979,34.076,193.41,34.209z M190.426,36.016c0.555,0.164,1.127-0.146,1.299-0.705
		c0.152-0.547-0.156-1.125-0.715-1.289c-0.555-0.166-1.135,0.158-1.295,0.707C189.553,35.283,189.877,35.857,190.426,36.016z
		 M187.119,36.752c0.627,0.188,1.275-0.168,1.454-0.786c0.176-0.625-0.169-1.271-0.793-1.457c-0.622-0.181-1.271,0.175-1.456,0.798
		C186.144,35.92,186.502,36.572,187.119,36.752z"/>
	<path fill="#FF8000" d="M198.117,15.873c-0.65,0.685-1.748,0.723-2.439,0.065c-0.695-0.655-0.723-1.747-0.063-2.44
		c0.649-0.688,1.733-0.729,2.438-0.076C198.74,14.08,198.77,15.168,198.117,15.873z M180.923,11.951
		c-0.346-0.318-0.889-0.306-1.207,0.039c-0.319,0.34-0.309,0.871,0.031,1.195c0.344,0.324,0.883,0.311,1.205-0.034
		C181.271,12.814,181.257,12.272,180.923,11.951z M185.23,10.311c-0.429-0.4-1.088-0.373-1.486,0.043
		c-0.395,0.43-0.377,1.09,0.053,1.491c0.416,0.396,1.082,0.375,1.479-0.05C185.673,11.375,185.652,10.707,185.23,10.311z
		 M189.854,9.972c-0.535-0.503-1.381-0.476-1.885,0.056c-0.507,0.54-0.478,1.383,0.059,1.885c0.539,0.506,1.386,0.482,1.886-0.055
		C190.416,11.322,190.389,10.479,189.854,9.972z M194.233,11.092c-0.612-0.572-1.555-0.54-2.123,0.061
		c-0.567,0.6-0.541,1.551,0.062,2.12c0.604,0.574,1.559,0.54,2.123-0.058C194.86,12.613,194.832,11.658,194.233,11.092z
		 M177.26,14.82c-0.26-0.234-0.659-0.226-0.896,0.026c-0.239,0.258-0.229,0.657,0.022,0.897c0.262,0.244,0.659,0.229,0.896-0.023
		C177.527,15.463,177.517,15.064,177.26,14.82z M199.342,30.475c-0.32,0.34-0.305,0.881,0.037,1.209
		c0.346,0.324,0.881,0.303,1.209-0.047c0.313-0.337,0.307-0.877-0.037-1.201C200.205,30.121,199.666,30.132,199.342,30.475z
		 M200.436,26.08c-0.396,0.42-0.371,1.084,0.047,1.479c0.429,0.399,1.086,0.385,1.484-0.041c0.396-0.423,0.383-1.088-0.043-1.485
		C201.504,25.641,200.836,25.658,200.436,26.08z M200.102,21.451c-0.512,0.535-0.481,1.385,0.053,1.885
		c0.541,0.512,1.388,0.48,1.894-0.059c0.502-0.533,0.477-1.378-0.059-1.886C201.446,20.893,200.604,20.914,200.102,21.451z
		 M198.485,17.16c-0.569,0.605-0.539,1.554,0.064,2.125c0.604,0.573,1.557,0.537,2.119-0.064c0.569-0.605,0.541-1.548-0.064-2.126
		C200.004,16.529,199.051,16.563,198.485,17.16z M197.002,34.285c-0.238,0.262-0.229,0.662,0.026,0.896
		c0.257,0.236,0.658,0.229,0.894-0.033c0.244-0.248,0.236-0.654-0.021-0.894C197.645,34.016,197.24,34.029,197.002,34.285z
		 M178.681,36.502c0.657-0.695,0.622-1.783-0.064-2.439c-0.699-0.652-1.791-0.623-2.445,0.069c-0.649,0.706-0.617,1.782,0.078,2.448
		C176.941,37.232,178.035,37.197,178.681,36.502z M174.949,19.529c0.314-0.341,0.305-0.876-0.041-1.205
		c-0.339-0.318-0.877-0.3-1.197,0.035c-0.33,0.342-0.311,0.881,0.033,1.207C174.087,19.882,174.623,19.869,174.949,19.529z
		 M173.855,23.93c0.396-0.423,0.373-1.096-0.047-1.489c-0.429-0.401-1.089-0.381-1.487,0.043c-0.393,0.431-0.375,1.086,0.05,1.486
		C172.787,24.367,173.455,24.342,173.855,23.93z M174.191,28.551c0.508-0.531,0.479-1.378-0.056-1.887
		c-0.541-0.514-1.381-0.479-1.891,0.063c-0.502,0.532-0.479,1.375,0.062,1.889C172.843,29.115,173.683,29.091,174.191,28.551z
		 M175.802,32.84c0.568-0.598,0.541-1.555-0.059-2.122c-0.607-0.573-1.557-0.532-2.117,0.065c-0.574,0.603-0.553,1.553,0.056,2.121
		C174.287,33.475,175.24,33.438,175.802,32.84z M193.375,38.059c0.346,0.32,0.887,0.301,1.201-0.039
		c0.317-0.334,0.309-0.877-0.037-1.199c-0.343-0.324-0.875-0.312-1.203,0.035C193.02,37.193,193.031,37.73,193.375,38.059z
		 M189.065,39.693c0.42,0.396,1.088,0.373,1.48-0.047c0.397-0.422,0.383-1.084-0.043-1.484c-0.426-0.398-1.088-0.377-1.49,0.047
		C188.621,38.627,188.641,39.295,189.065,39.693z M184.431,40.021c0.545,0.515,1.379,0.488,1.89-0.043
		c0.509-0.537,0.479-1.387-0.052-1.896c-0.543-0.502-1.39-0.476-1.892,0.063C183.871,38.682,183.896,39.529,184.431,40.021z
		 M180.07,38.912c0.604,0.57,1.556,0.539,2.11-0.061c0.567-0.607,0.551-1.559-0.06-2.121c-0.604-0.568-1.559-0.545-2.121,0.063
		C179.433,37.389,179.457,38.341,180.07,38.912z"/>
	<path fill="#FF8000" d="M205.127,19.525c-1.064,0.456-2.289-0.035-2.748-1.099c-0.459-1.062,0.031-2.284,1.094-2.743
		c1.06-0.456,2.285,0.025,2.744,1.09C206.676,17.836,206.184,19.067,205.127,19.525z M190.446,6.221
		c-0.129-0.629-0.729-1.035-1.356-0.904c-0.625,0.122-1.031,0.725-0.906,1.354c0.129,0.625,0.736,1.033,1.361,0.902
		C190.164,7.449,190.569,6.842,190.446,6.221z M195.397,7.295c-0.192-0.752-0.951-1.198-1.698-1.004
		c-0.742,0.191-1.201,0.944-1.009,1.697c0.187,0.75,0.957,1.202,1.701,1.012C195.135,8.808,195.586,8.041,195.397,7.295z
		 M199.963,9.5c-0.289-0.922-1.264-1.433-2.185-1.141c-0.913,0.282-1.438,1.258-1.146,2.178c0.287,0.918,1.27,1.433,2.188,1.146
		C199.74,11.396,200.248,10.418,199.963,9.5z M203.608,12.748c-0.371-1.004-1.479-1.502-2.473-1.135
		c-0.994,0.365-1.506,1.463-1.135,2.465c0.367,0.998,1.479,1.504,2.469,1.14C203.461,14.848,203.973,13.74,203.608,12.748z
		 M180.517,7.517c-0.185-0.427-0.681-0.618-1.104-0.438c-0.425,0.188-0.617,0.676-0.438,1.105c0.184,0.422,0.686,0.619,1.104,0.436
		C180.505,8.44,180.703,7.945,180.517,7.517z M201.463,35.217c-0.521,0.375-0.644,1.096-0.275,1.613
		c0.371,0.52,1.09,0.646,1.611,0.275c0.521-0.373,0.643-1.088,0.271-1.617C202.707,34.977,201.985,34.852,201.463,35.217z
		 M203.758,30.718c-0.652,0.417-0.848,1.28-0.437,1.927c0.414,0.657,1.275,0.85,1.933,0.438c0.649-0.416,0.848-1.271,0.432-1.931
		C205.27,30.504,204.41,30.311,203.758,30.718z M204.842,25.658c-0.834,0.467-1.133,1.531-0.666,2.373
		c0.477,0.84,1.535,1.139,2.371,0.662c0.846-0.469,1.141-1.527,0.666-2.375C206.744,25.479,205.686,25.18,204.842,25.658z
		 M204.78,20.572c-0.944,0.469-1.34,1.627-0.868,2.57c0.477,0.966,1.627,1.346,2.578,0.874c0.942-0.474,1.342-1.614,0.864-2.569
		C206.879,20.494,205.729,20.104,204.78,20.572z M194.211,41.389c-0.428,0.178-0.625,0.672-0.441,1.094
		c0.188,0.436,0.679,0.627,1.104,0.442c0.426-0.183,0.625-0.671,0.442-1.099C195.129,41.4,194.635,41.203,194.211,41.389z
		 M170.819,34.318c1.058-0.455,1.55-1.688,1.089-2.742c-0.459-1.067-1.684-1.555-2.742-1.094c-1.061,0.453-1.554,1.682-1.092,2.744
		C168.531,34.289,169.765,34.775,170.819,34.318z M172.828,14.783c0.512-0.365,0.643-1.088,0.271-1.605
		c-0.371-0.527-1.087-0.645-1.604-0.27c-0.523,0.365-0.65,1.08-0.277,1.6C171.586,15.027,172.306,15.154,172.828,14.783z
		 M170.531,19.285c0.65-0.416,0.848-1.279,0.432-1.931c-0.416-0.657-1.276-0.84-1.93-0.431c-0.646,0.414-0.852,1.271-0.432,1.928
		C169.013,19.504,169.88,19.697,170.531,19.285z M169.439,24.352c0.844-0.473,1.143-1.533,0.668-2.378
		c-0.474-0.831-1.529-1.128-2.37-0.661c-0.841,0.475-1.14,1.527-0.668,2.374C167.543,24.524,168.603,24.826,169.439,24.352z
		 M169.509,29.43c0.949-0.471,1.343-1.623,0.869-2.568c-0.474-0.961-1.623-1.338-2.578-0.865c-0.944,0.461-1.344,1.609-0.873,2.568
		C167.406,29.516,168.562,29.902,169.509,29.43z M183.843,43.789c0.121,0.623,0.732,1.029,1.357,0.912
		c0.62-0.129,1.027-0.738,0.904-1.367c-0.127-0.623-0.736-1.027-1.359-0.902C184.121,42.555,183.716,43.166,183.843,43.789z
		 M178.892,42.707c0.188,0.752,0.948,1.203,1.694,1.008c0.748-0.188,1.205-0.939,1.015-1.695c-0.188-0.752-0.957-1.199-1.701-1.006
		C179.152,41.203,178.705,41.957,178.892,42.707z M174.324,40.506c0.288,0.926,1.266,1.432,2.18,1.145
		c0.92-0.289,1.438-1.264,1.146-2.183c-0.281-0.916-1.265-1.429-2.185-1.142C174.552,38.615,174.037,39.584,174.324,40.506z
		 M170.681,37.26c0.372,1.004,1.479,1.504,2.469,1.135c0.998-0.373,1.508-1.467,1.139-2.475c-0.367-0.988-1.477-1.498-2.47-1.133
		C170.83,35.16,170.314,36.268,170.681,37.26z M198.17,38.953c-0.389,0.309-0.453,0.875-0.15,1.262
		c0.313,0.395,0.877,0.455,1.271,0.148c0.395-0.307,0.459-0.871,0.147-1.266C199.133,38.709,198.563,38.643,198.17,38.953z
		 M189.715,42.594c-0.484,0.07-0.832,0.527-0.758,1.023c0.067,0.49,0.533,0.834,1.021,0.754c0.496-0.069,0.836-0.521,0.76-1.016
		C190.67,42.863,190.213,42.52,189.715,42.594z M185.33,6.385c-0.065-0.488-0.529-0.826-1.024-0.756
		c-0.488,0.076-0.83,0.527-0.761,1.023c0.076,0.491,0.531,0.828,1.021,0.758C185.056,7.341,185.406,6.884,185.33,6.385z
		 M176.269,9.791c-0.314-0.396-0.879-0.455-1.271-0.149c-0.386,0.31-0.455,0.872-0.146,1.267c0.309,0.391,0.875,0.457,1.261,0.149
		C176.509,10.742,176.578,10.181,176.269,9.791z"/>
	<path fill="#FF8000" d="M211.069,27.68c-1.479,0-2.676-1.197-2.676-2.682c0-1.484,1.193-2.674,2.676-2.674
		c1.48,0,2.679,1.188,2.679,2.68C213.746,26.48,212.547,27.68,211.069,27.68z M200.551,4.592c0.18-0.809-0.342-1.59-1.137-1.76
		c-0.797-0.166-1.582,0.336-1.75,1.139c-0.177,0.795,0.338,1.58,1.137,1.751C199.6,5.892,200.389,5.387,200.551,4.592z
		 M205.832,8.361c0.153-0.979-0.519-1.888-1.486-2.048c-0.979-0.149-1.896,0.509-2.055,1.489c-0.152,0.98,0.516,1.896,1.492,2.051
		C204.756,10.013,205.676,9.341,205.832,8.361z M210.08,13.272c0.129-1.231-0.756-2.321-1.984-2.457
		c-1.221-0.124-2.322,0.757-2.453,1.994c-0.127,1.22,0.769,2.319,1.986,2.453C208.858,15.387,209.953,14.496,210.08,13.272z
		 M212.717,18.937c0.07-1.367-0.977-2.514-2.324-2.585c-1.358-0.074-2.518,0.964-2.59,2.325c-0.07,1.356,0.973,2.521,2.326,2.589
		C211.487,21.336,212.649,20.291,212.717,18.937z M188.219,1.074c0-0.592-0.482-1.074-1.069-1.074c-0.601,0-1.084,0.482-1.084,1.074
		c0,0.601,0.483,1.082,1.084,1.082C187.736,2.156,188.219,1.674,188.219,1.074z M198.801,44.279
		c-0.799,0.172-1.313,0.957-1.143,1.752c0.174,0.807,0.959,1.313,1.756,1.142c0.795-0.162,1.313-0.948,1.137-1.755
		C200.389,44.623,199.6,44.109,198.801,44.279z M203.783,40.152c-0.979,0.154-1.646,1.064-1.492,2.049
		c0.158,0.98,1.076,1.642,2.055,1.49c0.971-0.16,1.644-1.066,1.486-2.053C205.676,40.662,204.758,40,203.783,40.152z
		 M207.629,34.744c-1.226,0.131-2.113,1.234-1.986,2.453c0.131,1.234,1.232,2.111,2.453,1.986c1.229-0.134,2.113-1.222,1.984-2.453
		C209.953,35.506,208.858,34.617,207.629,34.744z M210.129,28.736c-1.354,0.074-2.396,1.233-2.326,2.59
		c0.072,1.359,1.23,2.396,2.59,2.322c1.351-0.068,2.396-1.223,2.324-2.582C212.647,29.711,211.487,28.668,210.129,28.736z
		 M187.15,47.854c-0.601,0-1.084,0.479-1.084,1.076S186.549,50,187.15,50c0.587,0,1.069-0.475,1.069-1.07
		C188.219,48.33,187.736,47.854,187.15,47.854z M163.222,27.68c1.474,0,2.67-1.197,2.67-2.682c0-1.484-1.196-2.674-2.67-2.674
		c-1.479,0-2.685,1.188-2.685,2.68C160.539,26.48,161.742,27.68,163.222,27.68z M175.484,5.722c0.801-0.171,1.309-0.956,1.145-1.751
		c-0.172-0.803-0.959-1.305-1.756-1.139c-0.802,0.17-1.313,0.951-1.141,1.76C173.904,5.387,174.687,5.892,175.484,5.722z
		 M170.502,9.851c0.98-0.153,1.646-1.065,1.492-2.047c-0.154-0.982-1.076-1.638-2.045-1.489c-0.979,0.16-1.646,1.069-1.49,2.049
		C168.613,9.341,169.533,10.008,170.502,9.851z M166.656,15.259c1.223-0.128,2.113-1.229,1.984-2.448
		c-0.13-1.236-1.229-2.124-2.457-1.994c-1.22,0.135-2.112,1.225-1.979,2.457C164.332,14.496,165.427,15.387,166.656,15.259z
		 M164.158,21.266c1.354-0.068,2.396-1.232,2.324-2.589c-0.066-1.36-1.228-2.399-2.588-2.325c-1.353,0.071-2.4,1.218-2.325,2.585
		C161.642,20.291,162.802,21.336,164.158,21.266z M173.732,45.418c-0.172,0.805,0.339,1.592,1.141,1.759
		c0.797,0.168,1.584-0.341,1.756-1.146c0.164-0.797-0.344-1.58-1.137-1.752C174.687,44.109,173.904,44.623,173.732,45.418z
		 M168.459,41.639c-0.153,0.984,0.512,1.896,1.49,2.053c0.969,0.15,1.895-0.51,2.045-1.488c0.154-0.977-0.512-1.895-1.492-2.041
		C169.533,40,168.613,40.662,168.459,41.639z M164.205,36.73c-0.129,1.231,0.762,2.319,1.979,2.453
		c1.229,0.125,2.328-0.752,2.457-1.986c0.129-1.219-0.765-2.322-1.984-2.453C165.427,34.617,164.336,35.511,164.205,36.73z
		 M161.57,31.066c-0.073,1.359,0.976,2.514,2.325,2.582c1.36,0.074,2.521-0.963,2.596-2.322c0.063-1.354-0.979-2.516-2.332-2.59
		C162.802,28.668,161.642,29.711,161.57,31.066z M193.035,46.996c-0.611,0.166-0.98,0.799-0.814,1.416
		c0.164,0.617,0.801,0.98,1.414,0.814c0.617-0.17,0.988-0.795,0.82-1.414C194.291,47.199,193.651,46.83,193.035,46.996z
		 M181.25,46.996c-0.615-0.164-1.248,0.203-1.42,0.816c-0.16,0.619,0.207,1.244,0.823,1.414c0.614,0.166,1.25-0.197,1.416-0.814
		C182.23,47.795,181.867,47.162,181.25,46.996z M194.459,2.188c0.164-0.613-0.207-1.246-0.824-1.41
		c-0.613-0.164-1.248,0.196-1.41,0.816c-0.168,0.617,0.199,1.25,0.814,1.414C193.656,3.174,194.291,2.809,194.459,2.188z
		 M182.07,1.595c-0.171-0.62-0.802-0.979-1.416-0.816c-0.616,0.164-0.983,0.791-0.823,1.41c0.172,0.621,0.805,0.985,1.42,0.821
		C181.867,2.845,182.23,2.211,182.07,1.595z"/>
	<g>
		<path fill="#999999" d="M-10.829,17.404h5.005c3.928,0,6.737,2.872,6.737,7.032c0,4.16-2.813,7.032-6.737,7.032h-5.005V17.404z
			 M-5.888,29.863c2.727,0,4.941-1.856,4.941-5.427c0-3.569-2.218-5.428-4.941-5.428H-8.95v10.854h3.063L-5.888,29.863
			L-5.888,29.863z"/>
		<path fill="#999999" d="M9.169,17.15c4.351,0,6.397,3.379,6.397,7.286c0,3.907-2.05,7.287-6.397,7.287
			c-4.351,0-6.398-3.38-6.398-7.287C2.77,20.529,4.819,17.15,9.169,17.15z M13.71,24.437c0-3.358-1.415-5.744-4.541-5.744
			c-3.125,0-4.54,2.386-4.54,5.744c0,3.356,1.415,5.745,4.54,5.745C12.295,30.182,13.71,27.793,13.71,24.437z"/>
		<path fill="#999999" d="M31.721,31.469h-1.752V20.91l-4.098,8.785h-1.9l-4.097-8.785v10.559h-1.753V17.404h1.837l4.963,10.622
			l4.963-10.622h1.837V31.469L31.721,31.469z"/>
		<path fill="#999999" d="M35.123,17.404h1.856v14.064h-1.856V17.404z M36.96,16.053h-1.731l1.754-2.788h2.389L36.96,16.053z"/>
		<path fill="#999999" d="M40.381,17.404h1.838l7.708,11.172V17.404h1.795v14.064h-1.837l-7.708-11.17v11.171h-1.796V17.404z"/>
		<path fill="#999999" d="M55.122,17.404h1.856v14.064h-1.856V17.404z"/>
		<path fill="#999999" d="M66.039,17.15c4.351,0,6.397,3.379,6.397,7.286c0,3.907-2.05,7.287-6.397,7.287
			c-4.351,0-6.398-3.38-6.398-7.287C59.64,20.529,61.689,17.15,66.039,17.15z M70.58,24.437c0-3.358-1.415-5.744-4.541-5.744
			c-3.125,0-4.54,2.386-4.54,5.744c0,3.356,1.415,5.745,4.54,5.745C69.165,30.182,70.58,27.793,70.58,24.437z"/>
	</g>
</g>
</svg>
